<svg version="1.1" xmlns="http://www.w3.org/2000/svg" xmlns:xlink="http://www.w3.org/1999/xlink" width="27.146" height="32.5536" viewBox="0,0,27.146,32.5536"><g transform="translate(-226.68053,-162.39473)"><g data-paper-data="{&quot;isPaintingLayer&quot;:true}" fill-rule="nonzero" stroke="none" stroke-width="0.10154" stroke-linecap="butt" stroke-linejoin="miter" stroke-miterlimit="10" stroke-dasharray="" stroke-dashoffset="0" style="mix-blend-mode: normal"><path d="M248.19473,189.97143c-0.4318,0 -0.8583,-0.196 -1.1377,-0.5678l-3.0064,-4.0019c-0.4716,-0.6278 -0.3449,-1.5189 0.2827,-1.9906c0.6279,-0.4718 1.5189,-0.345 1.9906,0.2827l3.0064,4.0019c0.4716,0.6277 0.345,1.5189 -0.2827,1.9906c-0.256,0.1922 -0.5556,0.2851 -0.8529,0.2851z" fill="#faa51f"/><path d="M233.67793,188.55413c-0.2157,0 -0.4345,-0.0491 -0.6402,-0.1532c-0.7007,-0.3542 -0.9816,-1.2094 -0.6274,-1.9101l1.3447,-2.6599c0.3542,-0.7007 1.2093,-0.9817 1.9101,-0.6273c0.7006,0.3541 0.9816,1.2094 0.6273,1.9101l-1.3447,2.6599c-0.2502,0.4951 -0.7506,0.7805 -1.2698,0.7805z" fill="#faa324"/><path d="M234.91653,194.94833c-0.893,0 -1.6623,-0.6714 -1.7639,-1.5797c-0.0962,-0.8605 0.439,-1.6461 1.236,-1.894l0.8581,-2.3892c0.3317,-0.9236 1.3494,-1.4034 2.2731,-1.0718c0.9236,0.3318 1.4035,1.3495 1.0718,2.2731l-1.2204,3.3978c-0.2291,0.638 -0.8012,1.09 -1.4748,1.1654l-0.7803,0.0872c-0.067,0.0076 -0.1336,0.0112 -0.1996,0.0112z" fill="#faa324"/><path d="M244.46573,193.42503c-0.0386,0 -0.0773,-0.0013 -0.1162,-0.0037l-1.3522,-0.0872c-0.6958,-0.0449 -1.3011,-0.4926 -1.5477,-1.1447l-0.7089,-1.8746c-0.3472,-0.9179 0.1155,-1.9436 1.0334,-2.2908c0.9183,-0.3475 1.9435,0.1155 2.2908,1.0334l0.3039,0.8037l0.2096,0.0135c0.9794,0.0633 1.7221,0.9085 1.659,1.8878c-0.0609,0.9404 -0.8425,1.6626 -1.7717,1.6626z" fill="#faa324"/><path d="M240.12833,179.63693c1.7596,0 3.3541,0.6582 4.5086,1.7217c1.1546,1.0634 1.8693,2.532 1.8693,4.1527c0,1.6206 -0.7147,3.0893 -1.8693,4.1526c-1.1545,1.0635 -2.749,1.7217 -4.5086,1.7217c-1.7595,0 -3.354,-0.6582 -4.5085,-1.7217c-1.1546,-1.0633 -1.8693,-2.532 -1.8693,-4.1526c0,-1.6207 0.7147,-3.0893 1.8693,-4.1527c1.1545,-1.0635 2.749,-1.7217 4.5085,-1.7217z" fill="#e89623"/><path d="M246.04423,187.70593c-0.9441,2.1568 -3.2363,3.6796 -5.9159,3.6796c-3.2862,0 -5.9912,-2.2897 -6.339,-5.2315c0.7856,2.4884 3.4057,4.3176 6.5191,4.3176c2.4196,0 4.5413,-1.1052 5.7358,-2.7657z" fill="#d07d29"/><path d="M242.66173,188.82753c-0.3089,1.6688 -2.4614,3.1802 -3.968,2.3788c-1.5065,-0.8017 -1.4092,-1.5648 -1.5859,-2.4365c-0.361,-1.7812 0.5236,-3.2585 3.0204,-3.1502c2.3494,0.1019 2.801,1.7623 2.5335,3.2079z" fill="#f4f4f4"/><path d="M234.17573,184.01013c0.6415,-2.0521 3.5253,-4.3733 5.9526,-4.3733c3.1752,0 5.8074,2.1374 6.2957,4.9352c-0.9351,0.1193 -4.5501,0.4884 -5.5513,0.4884c-3.51,0 -4.204,0.0124 -6.697,-1.0503z" fill="#d07d29"/><path d="M232.56213,170.52413l0.3663,-7.8072l5.4026,3.4048" fill="#faa51f"/><path d="M240.82593,167.50513l5.9135,-5.1104l1.2512,6.2623" fill="#faa51f"/><path d="M249.98793,174.69603c0.108,5.1429 -3.2732,9.3143 -9.1898,9.3143c-5.9167,0 -9.5959,-4.2717 -9.5959,-9.4159c0,-5.1441 3.5778,-9.822 9.4944,-9.822c5.9166,0 9.1644,3.8846 9.2913,9.9236z" fill="#faa51f"/><g><path d="M241.22943,176.08053c1.8652,-0.0809 4.6542,-1.603 5.2452,-1.6754c2.627,-0.3218 4.5927,0.3128 4.1113,3.6084c-0.4012,2.7469 -3.264,5.707 -8.9309,6.0527c-5.6669,0.3458 -10.0811,-2.0295 -10.7854,-4.725c-0.7371,-2.8209 -0.0461,-6.1425 4.0623,-4.8126c0.5885,0.1905 4.4321,1.6328 6.2975,1.5519z" fill="#ffffff"/><path d="M240.55923,184.24283c-4.8781,0.0001 -9.1032,-2.0916 -9.828,-4.8654c-0.4659,-1.7831 -0.3094,-3.4103 0.4186,-4.353c0.4823,-0.6246 1.1877,-0.9413 2.0965,-0.9413c0.5137,0 1.0956,0.1041 1.7297,0.3093c0.0734,0.0238 0.1968,0.0667 0.3605,0.1238c1.1181,0.3895 4.0882,1.4243 5.7363,1.4245c0,0 0.0001,0 0.0002,0c0.0515,0 0.1014,-0.001 0.1502,-0.0032c1.2176,-0.0529 2.8844,-0.7525 3.9873,-1.2155c0.5979,-0.251 1.03,-0.4323 1.2467,-0.4588c0.4093,-0.0502 0.7925,-0.0756 1.1386,-0.0756c1.2103,0 2.0566,0.2984 2.5873,0.9122c0.5523,0.6388 0.7355,1.6261 0.5444,2.9343c-0.4124,2.8235 -3.3749,5.8278 -9.0638,6.1749c-0.3683,0.0224 -0.7399,0.0338 -1.1045,0.0338zM233.24633,174.36933c-0.8155,0 -1.4447,0.2792 -1.8701,0.8301c-0.6742,0.873 -0.8118,2.4077 -0.3682,4.1057c0.5893,2.2551 4.1369,4.6518 9.5512,4.6518c0.3588,0 0.7246,-0.0113 1.087,-0.0334c5.5285,-0.3372 8.4025,-3.2216 8.7983,-5.9305c0.1785,-1.2224 0.0177,-2.1327 -0.4778,-2.7059c-0.4731,-0.5472 -1.2486,-0.8132 -2.3709,-0.8132c-0.3346,0 -0.7059,0.0247 -1.1039,0.0734c-0.1774,0.0217 -0.6377,0.215 -1.1707,0.4388c-1.1216,0.4708 -2.8168,1.1825 -4.0855,1.2375c-0.0529,0.0022 -0.1068,0.0034 -0.1626,0.0034c-0.0001,0 -0.0002,0 -0.0004,0c-1.6964,-0.0001 -4.6998,-1.0465 -5.8304,-1.4404c-0.1608,-0.056 -0.2823,-0.0984 -0.3544,-0.1217c-0.6056,-0.1962 -1.1579,-0.2956 -1.6416,-0.2956z" fill="#faa51f"/></g><g><path d="M240.40723,171.97383c0.1001,2.3137 -1.2024,4.249 -2.9058,4.3223c-1.7063,0.0741 -3.169,-1.7426 -3.2683,-4.0553c-0.1012,-2.3137 1.1996,-4.2497 2.9047,-4.3235c1.7054,-0.0735 3.1685,1.7421 3.2694,4.0565" fill="#ffffff"/><path d="M237.40073,176.45063c-1.7604,0 -3.2186,-1.8462 -3.3197,-4.2032c-0.0504,-1.1511 0.234,-2.2497 0.8007,-3.0931c0.5764,-0.858 1.3754,-1.3512 2.2496,-1.389c1.8106,-0.0776 3.3233,1.7971 3.4282,4.2019c0.0498,1.1512 -0.2352,2.2496 -0.8024,3.0929c-0.5768,0.8575 -1.3754,1.3505 -2.2491,1.3881c-0.0359,0.0016 -0.0718,0.0024 -0.1073,0.0024zM237.23793,168.06753c-0.0311,0 -0.0624,0.0007 -0.0935,0.0021c-0.775,0.0335 -1.4889,0.4789 -2.0098,1.2544c-0.5307,0.79 -0.7968,1.8235 -0.7493,2.9102c0.0944,2.2 1.4978,3.977 3.1095,3.9097c0.7745,-0.0334 1.4881,-0.4786 2.0095,-1.2539c0.5311,-0.7898 0.7977,-1.8231 0.7508,-2.9097c-0.0958,-2.1939 -1.421,-3.9128 -3.0172,-3.9128z" fill="#faa51f"/></g><path d="M238.41933,175.19263c-0.3336,0.5628 -1.0227,0.7716 -1.5429,0.4632c-0.5171,-0.3066 -0.6683,-1.0155 -0.3352,-1.577c0.334,-0.5632 1.0278,-0.7689 1.5447,-0.4626c0.5189,0.3079 0.6674,1.0133 0.3334,1.5764" fill="#010101"/><g><path d="M247.27873,172.06433c0.098,2.2637 -1.1764,4.1571 -2.843,4.2287c-1.6693,0.0726 -3.1004,-1.7048 -3.1976,-3.9673c-0.0989,-2.2636 1.1739,-4.1579 2.842,-4.2299c1.6683,-0.0722 3.0998,1.7042 3.1986,3.9685" fill="#ffffff"/><path d="M244.33703,176.44743c-1.724,0 -3.152,-1.8076 -3.2512,-4.1153c-0.0491,-1.1269 0.2293,-2.2025 0.7841,-3.0284c0.5646,-0.8403 1.3472,-1.3233 2.2036,-1.3603c0.0348,-0.0015 0.0698,-0.0022 0.1044,-0.0022c1.7235,0 3.1522,1.8082 3.2529,4.1165c0.0487,1.127 -0.2303,2.2023 -0.7855,3.028c-0.5649,0.8399 -1.3474,1.3227 -2.2031,1.3595c-0.035,0.0015 -0.0703,0.0022 -0.1052,0.0022zM244.17803,168.24583c-0.0303,0 -0.0609,0.0007 -0.0913,0.0021c-0.7572,0.0327 -1.4546,0.468 -1.9638,1.2258c-0.5188,0.7723 -0.779,1.7827 -0.7326,2.8453c0.0923,2.1505 1.4679,3.8906 3.0388,3.8218c0.7567,-0.0326 1.454,-0.4676 1.9635,-1.2251c0.5192,-0.7722 0.78,-1.7824 0.734,-2.8448c-0.0936,-2.1449 -1.3888,-3.8251 -2.9486,-3.8251z" fill="#faa51f"/></g><path d="M245.31483,175.23693c-0.3265,0.5507 -1.0006,0.7551 -1.5096,0.4531c-0.5058,-0.3 -0.6538,-0.9935 -0.328,-1.543c0.3267,-0.5509 1.0056,-0.7523 1.5113,-0.4525c0.5077,0.3013 0.653,0.9915 0.3263,1.5424" fill="#010101"/><path d="M240.95483,175.64113c0.9191,0 2.2592,-0.1405 2.3284,0.2824c0.072,0.4238 -1.5583,2.0845 -2.1917,2.1543c-0.6359,0.0708 -2.3267,-1.1662 -2.3609,-1.9431c-0.037,-0.777 1.3758,-0.4936 2.2242,-0.4936" fill="#5f4b43"/><path d="M240.77073,183.15093c-0.1844,0 -0.3745,-0.0061 -0.5651,-0.0182c-1.5206,-0.0961 -2.6335,-0.5414 -3.3077,-1.3234c-0.6397,-0.7421 -0.893,-1.782 -0.7743,-3.1789l0.0189,-0.2218l0.219,0.039c0.0294,0.0052 2.9447,0.5209 4.4058,0.5293c0.1969,0.0013 0.3919,0.0043 0.5871,0.0073c0.2577,0.0039 0.5158,0.008 0.7789,0.008c0.9883,0 2.1131,-0.0529 3.6378,-0.437l0.2526,-0.0637v0.2605c0,1.1959 -0.4813,2.2909 -1.3553,3.0828c-0.9497,0.861 -2.2975,1.3161 -3.8977,1.3161zM236.51253,178.88613c-0.0662,1.1702 0.1613,2.0412 0.693,2.6579c0.6002,0.6962 1.6182,1.0944 3.0257,1.1833c0.1821,0.0115 0.3635,0.0174 0.5395,0.0174c3.2018,0 4.7123,-1.8337 4.8382,-3.732c-1.4362,0.3372 -2.5184,0.3858 -3.4757,0.3858c-0.2651,0 -0.5254,-0.0041 -0.7852,-0.008c-0.194,-0.0031 -0.3877,-0.0061 -0.5834,-0.0074c-1.2729,-0.0073 -3.533,-0.3747 -4.2521,-0.497z" fill="#faa51f"/><path d="M228.87173,176.57513c-1.4162,-0.3802 -2.1841,-0.4239 -2.1912,-0.4245l0.0204,-0.4007c0.0323,0.0019 0.812,0.0448 2.2744,0.4376c1.3237,0.3554 2.201,0.8145 2.2374,0.8342l-0.1866,0.3541c-0.0086,-0.0044 -0.8769,-0.4584 -2.1544,-0.8007z" fill="#010101"/><path d="M227.50013,179.40073l-0.0261,-0.3999c0.0137,-0.001 1.3686,-0.089 1.9569,-0.2153c0.5958,-0.1278 1.7573,-0.4694 1.7686,-0.4725l0.1127,0.3844c-0.0478,0.0145 -1.1867,0.3483 -1.7973,0.4798c-0.0791,0.0179 -0.1714,0.0343 -0.2706,0.0498c-0.6964,0.1084 -1.6638,0.1685 -1.7442,0.1737z" fill="#010101"/><path d="M249.85143,176.52423c0.1876,-0.026 0.8556,-0.0632 2.2591,-0.5087c0.8597,-0.2984 1.4452,-0.8067 1.4516,-0.8121l0.2644,0.3014c-0.0262,0.023 -0.6511,0.5652 -1.5845,0.8891c-0.7801,0.272 -2.2633,0.516 -2.326,0.5266z" fill="#010101"/><path d="M251.86663,179.37323c-0.9547,-0.0957 -1.8657,-0.461 -1.904,-0.4762l0.1502,-0.3719c0.0092,0.004 0.8976,0.3594 1.7935,0.4492c0.8929,0.0893 1.5099,0.0372 1.5154,0.0368l0.0349,0.3989c-0.0145,0.0015 -0.2047,0.0177 -0.5244,0.0177c-0.2715,0 -0.6368,-0.0118 -1.0656,-0.0545z" fill="#010101"/><path d="M242.08023,190.07143c-0.5047,0.5843 -1.382,1.0681 -2.0155,1.2564c-0.2802,0.0361 -0.5659,0.0558 -0.8566,0.0572c-0.1724,-0.0312 -0.3444,-0.0883 -0.5143,-0.1787c-0.4358,-0.2318 -0.9435,-0.7599 -1.2128,-1.1349c0.5503,0.1258 1.2786,0.4002 1.8747,0.4002c0.8661,0 1.9637,-0.1423 2.7245,-0.4002z" fill="#e2e2e2"/></g></g></svg>