<svg version="1.1" xmlns="http://www.w3.org/2000/svg" xmlns:xlink="http://www.w3.org/1999/xlink" width="27.31" height="32.7502" viewBox="0,0,27.31,32.7502"><g transform="translate(-227.01182,-162.25622)"><g data-paper-data="{&quot;isPaintingLayer&quot;:true}" fill-rule="nonzero" stroke="none" stroke-width="0.10216" stroke-linecap="butt" stroke-linejoin="miter" stroke-miterlimit="10" stroke-dasharray="" stroke-dashoffset="0" style="mix-blend-mode: normal"><path d="M247.02162,188.67152c-0.5185,0 -1.0188,-0.2828 -1.2726,-0.7754l-1.3901,-2.698c-0.3617,-0.7022 -0.0858,-1.5647 0.6164,-1.9264c0.7021,-0.3619 1.5646,-0.0858 1.9264,0.6163l1.39,2.698c0.3618,0.7021 0.0858,1.5646 -0.6163,1.9264c-0.2094,0.1081 -0.4334,0.1591 -0.6538,0.1591z" data-paper-data="{&quot;index&quot;:null}" fill="#faa51f"/><path d="M231.90712,189.59502c-0.3527,0 -0.7062,-0.1297 -0.9826,-0.3912c-0.5739,-0.5428 -0.5989,-1.4481 -0.056,-2.0218l3.4981,-3.6975c0.5427,-0.5738 1.4481,-0.5989 2.0219,-0.0561c0.5738,0.5427 0.5988,1.4481 0.056,2.0218l-3.4981,3.6975c-0.2814,0.2973 -0.66,0.4473 -1.0393,0.4473z" data-paper-data="{&quot;index&quot;:null}" fill="#faa324"/><path d="M236.11482,193.47412c-0.8984,0 -1.6723,-0.6755 -1.7745,-1.5893c-0.0897,-0.8018 0.3656,-1.5388 1.0705,-1.8416l0.1548,-0.711c0.2099,-0.9648 1.1627,-1.5768 2.127,-1.3667c0.9648,0.21 1.5767,1.1623 1.3667,2.1271l-0.4105,1.8859c-0.163,0.7493 -0.786,1.3112 -1.5481,1.3965l-0.785,0.0877c-0.0675,0.0077 -0.1345,0.0114 -0.2009,0.0114z" data-paper-data="{&quot;index&quot;:null}" fill="#faa324"/><path d="M245.21082,195.00642c-0.0387,0 -0.0776,-0.0014 -0.1168,-0.0038l-1.3604,-0.0878c-0.7465,-0.0482 -1.3841,-0.556 -1.598,-1.273l-1.0198,-3.4183c-0.2822,-0.9462 0.2559,-1.942 1.2021,-2.2242c0.9463,-0.2826 1.9421,0.256 2.2242,1.2021l0.6639,2.2255l0.1182,0.0076c0.9854,0.0636 1.7325,0.9139 1.669,1.8992c-0.0611,0.946 -0.8476,1.6727 -1.7824,1.6727z" data-paper-data="{&quot;index&quot;:null}" fill="#faa324"/><path d="M240.54092,179.60262c1.7702,0 3.3743,0.6622 4.5358,1.7321c1.1615,1.0697 1.8805,2.5473 1.8805,4.1777c0,1.6304 -0.719,3.108 -1.8805,4.1778c-1.1615,1.0699 -2.7656,1.732 -4.5358,1.732c-1.7702,0 -3.3743,-0.6621 -4.5358,-1.732c-1.1616,-1.0698 -1.8805,-2.5474 -1.8805,-4.1778c0,-1.6304 0.7189,-3.108 1.8805,-4.1777c1.1615,-1.0699 2.7656,-1.7321 4.5358,-1.7321z" data-paper-data="{&quot;index&quot;:null}" fill="#e89623"/><path d="M246.49252,187.72032c-0.9498,2.1698 -3.2559,3.7018 -5.9516,3.7018c-3.3061,0 -6.0274,-2.3035 -6.3773,-5.263c0.7903,2.5033 3.4263,4.3436 6.5584,4.3436c2.4342,0 4.5687,-1.1119 5.7705,-2.7824z" data-paper-data="{&quot;index&quot;:null}" fill="#d07d29"/><path d="M243.08952,188.84872c-0.3107,1.6788 -2.4762,3.1994 -3.9919,2.3931c-1.5156,-0.8065 -1.4177,-1.5742 -1.5955,-2.4511c-0.3632,-1.792 0.5267,-3.2783 3.0387,-3.1693c2.3635,0.1025 2.8179,1.773 2.5487,3.2273z" data-paper-data="{&quot;index&quot;:null}" fill="#f4f4f4"/><path d="M234.55232,184.00222c0.6453,-2.0645 3.5466,-4.3997 5.9886,-4.3997c3.1944,0 5.8424,2.1503 6.3337,4.9649c-0.9408,0.1201 -4.5776,0.4914 -5.5849,0.4914c-3.5312,0 -4.2293,0.0125 -6.7374,-1.0566z" data-paper-data="{&quot;index&quot;:null}" fill="#d07d29"/><path d="M232.92892,170.43472l0.3686,-7.8543l5.4352,3.4253" data-paper-data="{&quot;index&quot;:null}" fill="#faa51f"/><path d="M241.24262,167.39742l5.9493,-5.1412l1.2588,6.3001" data-paper-data="{&quot;index&quot;:null}" fill="#faa51f"/><path d="M250.46002,174.63182c0.1086,5.174 -3.2929,9.3706 -9.2453,9.3706c-5.9524,0 -9.6539,-4.2976 -9.6539,-9.4728c0,-5.1752 3.5994,-9.8813 9.5518,-9.8813c5.9523,0 9.2197,3.908 9.3474,9.9835z" data-paper-data="{&quot;index&quot;:null}" fill="#faa51f"/><g data-paper-data="{&quot;index&quot;:null}"><path d="M241.64862,176.02472c1.8764,-0.0814 4.6823,-1.6127 5.2769,-1.6855c2.6429,-0.3238 4.6205,0.3146 4.1361,3.6302c-0.4036,2.7634 -3.2837,5.7414 -8.9849,6.0892c-5.7011,0.3479 -10.1419,-2.0417 -10.8505,-4.7535c-0.7415,-2.838 -0.0463,-6.1797 4.0869,-4.8417c0.592,0.1917 4.4589,1.6427 6.3355,1.5613z" fill="#ffffff"/><path d="M240.97442,184.23622c-4.9076,0.0001 -9.1582,-2.1042 -9.8874,-4.8948c-0.4687,-1.7937 -0.3113,-3.4308 0.4211,-4.3792c0.4852,-0.6283 1.1949,-0.947 2.1091,-0.947c0.5169,0 1.1023,0.1047 1.7402,0.3112c0.0739,0.0239 0.198,0.0671 0.3627,0.1245c1.1248,0.3919 4.1129,1.4329 5.771,1.4331c0,0 0.0001,0 0.0002,0c0.0518,0 0.1019,-0.001 0.1511,-0.0032c1.2249,-0.0532 2.9018,-0.757 4.0114,-1.2228c0.6015,-0.2525 1.0362,-0.435 1.2542,-0.4616c0.4118,-0.0505 0.7972,-0.076 1.1455,-0.076c1.2176,0 2.069,0.3001 2.6029,0.9176c0.5556,0.6427 0.7399,1.636 0.5476,2.9521c-0.4148,2.8405 -3.3952,5.8629 -9.1185,6.2121c-0.3705,0.0226 -0.7443,0.034 -1.1111,0.034zM233.61722,174.30312c-0.8204,0 -1.4534,0.281 -1.8813,0.8352c-0.6783,0.8782 -0.8168,2.4222 -0.3704,4.1304c0.5928,2.2687 4.1619,4.68 9.6089,4.68c0.3609,0 0.729,-0.0114 1.0936,-0.0336c5.5618,-0.3393 8.4532,-3.2411 8.8513,-5.9664c0.1796,-1.2298 0.0179,-2.1456 -0.4806,-2.7222c-0.476,-0.5505 -1.2562,-0.8182 -2.3852,-0.8182c-0.3366,0 -0.7102,0.025 -1.1106,0.0739c-0.1784,0.0219 -0.6415,0.2163 -1.1777,0.4414c-1.1285,0.4737 -2.8339,1.1897 -4.1103,1.245c-0.0532,0.0023 -0.1074,0.0035 -0.1635,0.0035c-0.0001,0 -0.0002,0 -0.0004,0c-1.7067,-0.0001 -4.7282,-1.0528 -5.8656,-1.4491c-0.1619,-0.0564 -0.284,-0.099 -0.3566,-0.1225c-0.6092,-0.1974 -1.1649,-0.2974 -1.6516,-0.2974z" fill="#faa51f"/></g><g data-paper-data="{&quot;index&quot;:null}"><path d="M240.82142,171.89322c0.1007,2.3277 -1.2096,4.2746 -2.9233,4.3484c-1.7166,0.0745 -3.1882,-1.7532 -3.2881,-4.0798c-0.1017,-2.3277 1.2069,-4.2754 2.9222,-4.3496c1.7158,-0.074 3.1877,1.7526 3.2892,4.081" fill="#ffffff"/><path d="M237.79672,176.39702c-1.771,0 -3.238,-1.8574 -3.3397,-4.2286c-0.0507,-1.158 0.2355,-2.2633 0.8056,-3.1118c0.5798,-0.8631 1.3836,-1.3593 2.2631,-1.3973c1.8216,-0.0781 3.3434,1.8079 3.449,4.2273c0.05,1.158 -0.2366,2.2631 -0.8073,3.1115c-0.5803,0.8627 -1.3837,1.3587 -2.2627,1.3965c-0.0361,0.0016 -0.0722,0.0024 -0.108,0.0024zM237.63302,167.96332c-0.0313,0 -0.0628,0.0007 -0.0941,0.002c-0.7797,0.0338 -1.4979,0.4819 -2.0219,1.2621c-0.5339,0.7947 -0.8017,1.8344 -0.7539,2.9277c0.0951,2.2133 1.5069,4.0011 3.1283,3.9333c0.7792,-0.0336 1.4972,-0.4814 2.0216,-1.2614c0.5344,-0.7946 0.8026,-1.8342 0.7554,-2.9273c-0.0963,-2.2072 -1.4296,-3.9364 -3.0354,-3.9364z" fill="#faa51f"/></g><path d="M238.82162,175.13142c-0.3357,0.5662 -1.029,0.7763 -1.5523,0.466c-0.5202,-0.3085 -0.6723,-1.0216 -0.3372,-1.5866c0.336,-0.5665 1.034,-0.7735 1.554,-0.4653c0.522,0.3098 0.6715,1.0194 0.3355,1.5859" data-paper-data="{&quot;index&quot;:null}" fill="#010101"/><g data-paper-data="{&quot;index&quot;:null}"><path d="M247.73452,171.98422c0.0985,2.2773 -1.1835,4.1822 -2.8603,4.2543c-1.6793,0.073 -3.1191,-1.7151 -3.2168,-3.9913c-0.0995,-2.2773 1.1809,-4.1831 2.8591,-4.2555c1.6784,-0.0726 3.1186,1.7145 3.218,3.9925" fill="#ffffff"/><path d="M244.77492,176.39382c-1.7343,0 -3.1709,-1.8185 -3.2708,-4.1402c-0.0494,-1.1337 0.2307,-2.2158 0.7889,-3.0466c0.568,-0.8454 1.3553,-1.3314 2.2168,-1.3685c0.0351,-0.0016 0.0703,-0.0023 0.1052,-0.0023c1.7338,0 3.1711,1.8191 3.2725,4.1414c0.0489,1.1337 -0.2317,2.2156 -0.7903,3.0462c-0.5683,0.845 -1.3555,1.3308 -2.2164,1.3677c-0.0352,0.0016 -0.0707,0.0023 -0.1059,0.0023zM244.61512,168.14272c-0.0306,0 -0.0613,0.0007 -0.092,0.002c-0.7617,0.0329 -1.4633,0.4709 -1.9756,1.2333c-0.5219,0.7769 -0.7837,1.7935 -0.737,2.8624c0.0929,2.1635 1.4767,3.9141 3.0571,3.845c0.7613,-0.0328 1.4628,-0.4705 1.9754,-1.2326c0.5224,-0.7768 0.7847,-1.7931 0.7384,-2.8619c-0.0942,-2.1579 -1.3972,-3.8482 -2.9663,-3.8482z" fill="#faa51f"/></g><path d="M245.75872,175.17602c-0.3285,0.554 -1.0066,0.7596 -1.5188,0.4558c-0.5088,-0.3018 -0.6577,-0.9995 -0.3299,-1.5523c0.3286,-0.5542 1.0116,-0.7569 1.5204,-0.4552c0.5108,0.3031 0.657,0.9974 0.3283,1.5517" data-paper-data="{&quot;index&quot;:null}" fill="#010101"/><path d="M241.37242,175.58262c0.9246,0 2.2728,-0.1413 2.3424,0.2841c0.0725,0.4264 -1.5677,2.0971 -2.2049,2.1673c-0.6397,0.0712 -2.3408,-1.1733 -2.3752,-1.9548c-0.0372,-0.7817 1.3841,-0.4966 2.2377,-0.4966" data-paper-data="{&quot;index&quot;:null}" fill="#5f4b43"/><path d="M241.18712,183.13772c-0.1855,0 -0.3767,-0.0061 -0.5685,-0.0182c-1.5298,-0.0967 -2.6494,-0.5447 -3.3277,-1.3315c-0.6436,-0.7465 -0.8983,-1.7926 -0.7789,-3.198l0.019,-0.2231l0.2203,0.0392c0.0296,0.0052 2.9625,0.5241 4.4324,0.5324c0.1981,0.0014 0.3943,0.0044 0.5907,0.0074c0.2592,0.004 0.5189,0.0081 0.7836,0.0081c0.9942,0 2.1258,-0.0533 3.6597,-0.4397l0.2542,-0.0641v0.2622c0,1.2031 -0.4842,2.3046 -1.3635,3.1014c-0.9555,0.8662 -2.3114,1.3239 -3.9213,1.3239zM236.90332,178.84722c-0.0667,1.1773 0.1622,2.0536 0.6971,2.674c0.6038,0.7004 1.628,1.1009 3.044,1.1904c0.1832,0.0116 0.3657,0.0175 0.5427,0.0175c3.2212,0 4.7408,-1.8448 4.8675,-3.7545c-1.445,0.3393 -2.5337,0.3881 -3.4967,0.3881c-0.2667,0 -0.5286,-0.0041 -0.79,-0.0081c-0.1951,-0.003 -0.39,-0.0061 -0.5869,-0.0073c-1.2806,-0.0074 -3.5544,-0.377 -4.2777,-0.5001z" data-paper-data="{&quot;index&quot;:null}" fill="#faa51f"/><path d="M229.21632,176.52232c-1.4248,-0.3826 -2.1973,-0.4265 -2.2045,-0.4271l0.0205,-0.4031c0.0325,0.0019 0.8169,0.045 2.2882,0.4403c1.3317,0.3575 2.2142,0.8194 2.2509,0.8392l-0.1877,0.3562c-0.0087,-0.0044 -0.8823,-0.4611 -2.1674,-0.8055z" data-paper-data="{&quot;index&quot;:null}" fill="#010101"/><path d="M227.83632,179.36492l-0.0262,-0.4023c0.0138,-0.001 1.3769,-0.0895 1.9688,-0.2166c0.5993,-0.1285 1.7678,-0.4722 1.7792,-0.4754l0.1134,0.3868c-0.0481,0.0146 -1.1939,0.3504 -1.8082,0.4827c-0.0795,0.018 -0.1724,0.0345 -0.2722,0.0501c-0.7006,0.1091 -1.6739,0.1695 -1.7548,0.1747z" data-paper-data="{&quot;index&quot;:null}" fill="#010101"/><path d="M250.32272,176.47102c0.1887,-0.0261 0.8607,-0.0635 2.2727,-0.5117c0.8649,-0.3002 1.4539,-0.8116 1.4604,-0.8171l0.266,0.3032c-0.0264,0.0232 -0.655,0.5687 -1.5941,0.8945c-0.7847,0.2737 -2.277,0.5192 -2.34,0.5298z" data-paper-data="{&quot;index&quot;:null}" fill="#010101"/><path d="M252.35012,179.33732c-0.9605,-0.0963 -1.877,-0.4638 -1.9155,-0.4792l0.1511,-0.3741c0.0092,0.004 0.903,0.3616 1.8043,0.452c0.8983,0.0898 1.519,0.0374 1.5246,0.037l0.035,0.4012c-0.0146,0.0016 -0.2059,0.0179 -0.5275,0.0179c-0.2732,0 -0.6406,-0.0118 -1.072,-0.0548z" data-paper-data="{&quot;index&quot;:null}" fill="#010101"/><path d="M242.50462,190.10012c-0.5079,0.5878 -1.3904,1.0745 -2.0278,1.264c-0.2818,0.0363 -0.5693,0.0561 -0.8617,0.0575c-0.1734,-0.0313 -0.3465,-0.0888 -0.5174,-0.1798c-0.4385,-0.2332 -0.9492,-0.7644 -1.2202,-1.1417c0.5537,0.1266 1.2864,0.4026 1.8861,0.4026c0.8713,0 1.9755,-0.1431 2.741,-0.4026z" data-paper-data="{&quot;index&quot;:null}" fill="#e2e2e2"/></g></g></svg>