<svg version="1.1" xmlns="http://www.w3.org/2000/svg" xmlns:xlink="http://www.w3.org/1999/xlink" width="28.83923" height="33.1" viewBox="0,0,28.83923,33.1"><g transform="translate(-224.07557,-162.35)"><g data-paper-data="{&quot;isPaintingLayer&quot;:true}" fill-rule="nonzero" stroke-linejoin="miter" stroke-miterlimit="10" stroke-dasharray="" stroke-dashoffset="0" style="mix-blend-mode: normal"><path d="M251.57557,185.15c0,0 -1.4,7.1 -7,4" data-paper-data="{&quot;index&quot;:null}" fill="none" stroke="#e0901b" stroke-width="2.5" stroke-linecap="round"/><path d="M250.77557,187.55c-0.3,-0.1 -0.6,-0.4 -0.7,-0.7c-0.1,-0.3 -0.1,-0.7 0,-1c0.1,-0.3 0.2,-0.5 0.2,-0.7c0,-0.1 0,-0.2 0,-0.2v-0.1c0.1,-0.6 0.7,-1 1.3,-1c0.1,0 0.2,0 0.3,0c0.3,0.1 0.6,0.3 0.8,0.6c0.2,0.3 0.3,0.7 0.2,1c0,0.1 -0.1,0.6 -0.4,1.3c-0.2,0.6 -0.7,0.9 -1.2,0.9v0c-0.2,0 -0.3,0 -0.5,-0.1z" data-paper-data="{&quot;index&quot;:null}" fill="#ededed" stroke="none" stroke-width="1" stroke-linecap="butt"/><path d="M243.17557,195.45c-0.9,0 -1.7,-0.8 -1.7,-1.8c0,-0.8 0.6,-1.6 1.4,-1.7l-0.5,-1.4c-0.3,-1 0.3,-1.9 1.2,-2.2c1,-0.3 1.9,0.3 2.2,1.2l1.1,3.7c0.1,0.5 0,1.1 -0.3,1.5c-0.3,0.4 -0.9,0.7 -1.4,0.7z" data-paper-data="{&quot;index&quot;:null}" fill="#ffa41f" stroke="none" stroke-width="1" stroke-linecap="butt"/><path d="M236.77557,194.05c-0.9,0 -1.7,-0.8 -1.7,-1.8c0.1,-0.9 0.8,-1.7 1.8,-1.7v0h1.1l0.2,-2.2c0.1,-1 0.9,-1.7 1.9,-1.6c1,0.1 1.7,0.9 1.6,1.9l-0.4,3.7c-0.1,0.9 -0.8,1.6 -1.7,1.6z" data-paper-data="{&quot;index&quot;:null}" fill="#ffa41f" stroke="none" stroke-width="1" stroke-linecap="butt"/><path d="M234.77557,190.55c-0.7,-0.3 -1.1,-1.1 -0.8,-1.8l1.6,-4.4c0.3,-0.7 1.1,-1.1 1.8,-0.8c0.7,0.3 1.1,1.1 0.8,1.8l-1.6,4.4c-0.2,0.5 -0.7,0.9 -1.3,0.9c-0.2,0 -0.4,0 -0.5,-0.1z" data-paper-data="{&quot;index&quot;:null}" fill="#faa51d" stroke="none" stroke-width="1" stroke-linecap="butt"/><path d="M245.72957,181.75c1.14,1.05 1.846,2.5 1.846,4.1c0,1.6 -0.706,3.05 -1.846,4.1c-1.141,1.05 -2.716,1.7 -4.454,1.7c-1.738,0 -3.313,-0.65 -4.454,-1.7c-1.14,-1.05 -1.846,-2.5 -1.846,-4.1c0,-1.6 0.706,-3.05 1.846,-4.1c1.141,-1.05 2.716,-1.7 4.454,-1.7c1.738,0 3.313,0.65 4.454,1.7z" data-paper-data="{&quot;index&quot;:null}" fill="#e8951c" stroke="none" stroke-width="1" stroke-linecap="butt"/><path d="M241.17557,190.75c3.1,0 5.6,-1.8 6.4,-4.3c-0.3,2.9 -3,5.2 -6.2,5.2c-2.6,0 -4.9,-1.5 -5.8,-3.6c1.1,1.6 3.2,2.7 5.6,2.7z" data-paper-data="{&quot;index&quot;:null}" fill="#d17d20" stroke="none" stroke-width="1" stroke-linecap="butt"/><path d="M238.97557,186.15c1.5,-0.8 3.3,-0.3 4.1,1.2c0.8,1.5 0.2,3.3 -1.3,4.1c-1.5,0.8 -3.1,-0.8 -3.9,-2.3c-0.7,-1.5 -0.4,-2.2 1.1,-3z" data-paper-data="{&quot;index&quot;:null}" fill="#f4f4f4" stroke="none" stroke-width="1" stroke-linecap="butt"/><path d="M237.97557,185.15c-1,0 -1.9,-0.1 -2.9,-0.2c0.5,-2.8 3.1,-4.9 6.2,-4.9c2.4,0 4.5,1.2 5.5,3c-2.2,1.3 -5.3,2.1 -8.8,2.1z" data-paper-data="{&quot;index&quot;:null}" fill="#d17d20" stroke="none" stroke-width="1" stroke-linecap="butt"/><path d="M242.17557,166.15l5.5,-3.1v7.7" data-paper-data="{&quot;index&quot;:null}" fill="#faa51d" stroke="none" stroke-width="1" stroke-linecap="butt"/><path d="M233.67557,168.45l1.5,-6.1l5.6,5.3" data-paper-data="{&quot;index&quot;:null}" fill="#faa51d" stroke="none" stroke-width="1" stroke-linecap="butt"/><path d="M238.57557,165.45c5.9,0 10.6,4.7 10.6,9.8c0,5.1 -4.8,9.2 -10.6,9.2c-5.8,0 -10.1,-4.2 -9.4,-9.2c0.8,-6.2 3.7,-9.8 9.4,-9.8z" data-paper-data="{&quot;index&quot;:null}" fill="#faa51d" stroke="none" stroke-width="1" stroke-linecap="butt"/><path d="M241.77557,173.65c4.4,1.4 4.5,3.5 4.1,5.9c-0.5,3.1 -5.4,4.9 -10.9,4c-5.5,-0.8 -8.5,-4 -8,-7.1c0.4,-2.5 1.5,-4.3 6.4,-4.3c0.6,0 0.6,2.5 2.4,2.7c1.9,0.3 5.4,-1.3 6,-1.2z" data-paper-data="{&quot;index&quot;:null}" fill="#ffffff" stroke="none" stroke-width="1" stroke-linecap="butt"/><path d="M234.87557,183.85c-2.6,-0.4 -4.8,-1.4 -6.3,-2.8c-1.4,-1.3 -2.1,-2.9 -1.8,-4.5c0.4,-2.6 1.7,-4.4 6.6,-4.4c0.3,0 0.5,0.3 0.7,0.8c0.3,0.7 0.7,1.7 1.8,1.8c0.1,0 0.2,0 0.4,0c1,0 2.5,-0.4 3.6,-0.7c0.8,-0.2 1.5,-0.4 1.8,-0.4c0.1,0 0.2,0 0.2,0c4.5,1.4 4.6,3.6 4.2,6c-0.2,1.3 -1.2,2.4 -2.7,3.2c-1.5,0.8 -3.5,1.2 -5.6,1.2c-0.9,0 -1.9,-0.1 -2.9,-0.2zM240.07557,174.25c-1.2,0.4 -2.6,0.8 -3.7,0.8c-0.2,0 -0.4,0 -0.5,0c-1.2,-0.2 -1.7,-1.3 -2,-2c-0.1,-0.3 -0.3,-0.7 -0.4,-0.7c-4.7,0.1 -5.9,1.7 -6.3,4.2c-0.2,1.5 0.4,3 1.7,4.3c1.5,1.4 3.6,2.3 6.2,2.7c0.9,0.1 1.8,0.2 2.7,0.2c4.3,0 7.6,-1.7 8,-4.1c0.4,-2.4 0.3,-4.3 -4.1,-5.7v0c-0.3,0 -1,0.1 -1.6,0.3z" data-paper-data="{&quot;index&quot;:null}" fill="#faa51d" stroke="none" stroke-width="1" stroke-linecap="butt"/><path d="M237.77557,172.05c0.4,-2.2 2.1,-3.8 3.7,-3.5c1.7,0.3 2.7,2.4 2.3,4.6c-0.4,2.2 -2,3.8 -3.7,3.5c-1.7,-0.3 -2.7,-2.4 -2.3,-4.6" data-paper-data="{&quot;index&quot;:null}" fill="#ffffff" stroke="none" stroke-width="1" stroke-linecap="butt"/><path d="M240.07557,176.85c-0.8,-0.1 -1.5,-0.7 -2,-1.6c-0.5,-0.9 -0.6,-2 -0.4,-3.1c0.4,-2.1 1.9,-3.7 3.5,-3.7c0.1,0 0.3,0 0.4,0c0.8,0.1 1.5,0.7 2,1.6c0.4,0.9 0.6,2 0.4,3.1c-0.4,2.1 -1.9,3.7 -3.5,3.7c-0.1,0 -0.3,0 -0.4,0zM237.87557,172.15c-0.1,1 0,2.1 0.4,2.9c0.4,0.8 1,1.4 1.8,1.5c0.2,0 0.3,0 0.4,0c1.5,0 2.9,-1.5 3.2,-3.5c0.2,-1 0,-2.1 -0.4,-2.9c-0.4,-0.8 -1,-1.3 -1.8,-1.5c-0.2,0 -0.3,0 -0.4,0c-1.4,0 -2.8,1.5 -3.2,3.5z" data-paper-data="{&quot;index&quot;:null}" fill="#faa51d" stroke="none" stroke-width="1" stroke-linecap="butt"/><path d="M238.57557,174.55c-0.2,-0.6 0,-1.3 0.4,-1.5c0.6,-0.3 1.2,0 1.5,0.6c0.3,0.6 0,1.3 -0.5,1.5c-0.5,0.3 -1.1,0 -1.4,-0.6" data-paper-data="{&quot;index&quot;:null}" fill="#000000" stroke="none" stroke-width="1" stroke-linecap="butt"/><path d="M231.37557,171.05c0.4,-2.2 2,-3.8 3.6,-3.5c1.6,0.3 2.6,2.3 2.2,4.5c-0.4,2.2 -2,3.8 -3.6,3.5c-1.6,-0.3 -2.6,-2.3 -2.2,-4.5" data-paper-data="{&quot;index&quot;:null}" fill="#ffffff" stroke="none" stroke-width="1" stroke-linecap="butt"/><path d="M233.67557,175.65c-0.9,-0.1 -1.6,-0.7 -2,-1.6c-0.5,-0.9 -0.6,-2 -0.4,-3.1c0.4,-2 1.8,-3.6 3.4,-3.6c0.1,0 0.3,0 0.4,0c0.9,0.1 1.6,0.7 2,1.6c0.5,0.9 0.6,2 0.4,3.1c-0.4,2 -1.8,3.6 -3.4,3.6c-0.2,0 -0.3,0 -0.4,0zM231.57557,171.05c-0.1,1.1 0,2.1 0.4,2.9c0.4,0.8 1.1,1.3 1.8,1.4c0.2,0 0.3,0 0.4,0c1.4,0 2.8,-1.5 3.1,-3.4c0.1,-1.1 0,-2.1 -0.4,-2.9c-0.4,-0.8 -1.1,-1.3 -1.8,-1.4c-0.2,0 -0.3,0 -0.4,0c-1.5,0 -2.8,1.5 -3.1,3.4z" data-paper-data="{&quot;index&quot;:null}" fill="#faa51d" stroke="none" stroke-width="1" stroke-linecap="butt"/><path d="M232.17557,173.35c-0.2,-0.5 0,-1.2 0.5,-1.5c0.5,-0.3 1.1,0 1.4,0.6c0.3,0.6 0,1.3 -0.5,1.5c-0.5,0.3 -1.1,0 -1.4,-0.6" data-paper-data="{&quot;index&quot;:null}" fill="#000000" stroke="none" stroke-width="1" stroke-linecap="butt"/><path d="M235.67557,174.95c0.9,0 2.3,-0.3 2.2,0.5c0,0.8 -2.4,2 -3,1.9c-0.7,0 -1.6,-1.7 -1.5,-2.1c0.1,-0.4 1.4,-0.3 2.3,-0.3" data-paper-data="{&quot;index&quot;:null}" fill="#5e4a42" stroke="none" stroke-width="1" stroke-linecap="butt"/><path d="M231.07557,178.65l-0.2,-0.3h0.5c0.6,0 2.7,0 3.9,-0.1c1.4,-0.1 5.4,-0.8 5.4,-0.8h0.2v0.2c0.2,1.4 0.1,2.4 -0.5,3.2c-0.6,0.9 -1.6,1.4 -3.1,1.6c-0.3,0.1 -0.5,0.1 -0.7,0.1c-3.3,0 -5.4,-3.6 -5.5,-3.9zM235.27557,178.75c-1.1,0.1 -2.9,0.1 -3.7,0.1c0.6,0.9 2.5,3.3 5,3.3c0.2,0 0.4,0 0.6,0c1.4,-0.2 2.4,-0.7 2.9,-1.4c0.5,-0.7 0.7,-1.5 0.5,-2.7c-0.8,0.1 -4,0.6 -5.3,0.7z" data-paper-data="{&quot;index&quot;:null}" fill="#faa51d" stroke="none" stroke-width="1" stroke-linecap="butt"/><path d="M247.77557,177.05c0,0 0.9,-0.4 2.2,-0.8c1.4,-0.4 2.2,-0.4 2.2,-0.4v0.4c0,0 -0.8,0 -2.2,0.4c-1.2,0.3 -2.1,0.8 -2.1,0.8z" data-paper-data="{&quot;index&quot;:null}" fill="#000000" stroke="none" stroke-width="1" stroke-linecap="butt"/><path d="M249.37557,179.25c-0.6,-0.2 -1.8,-0.5 -1.8,-0.5l0.1,-0.4c0,0 1.2,0.4 1.8,0.5c0.6,0.1 1.9,0.2 1.9,0.2v0.4c0,0 -1,-0.1 -1.7,-0.2c-0.1,0 -0.2,0 -0.3,0z" data-paper-data="{&quot;index&quot;:null}" fill="#000000" stroke="none" stroke-width="1" stroke-linecap="butt"/><path d="M225.67557,175.25c-1,-0.3 -1.6,-0.9 -1.6,-0.9l0.3,-0.3c0,0 0.6,0.5 1.4,0.8c1.4,0.5 3.5,0.7 2.2,0.5l-0.1,0.4c-0.1,0 -1.5,-0.3 -2.2,-0.5z" data-paper-data="{&quot;index&quot;:null}" fill="#000000" stroke="none" stroke-width="1" stroke-linecap="butt"/><path d="M224.37557,178.05v-0.4c0,0 0.6,0.1 1.5,0c0.9,0 1.8,-0.4 1.8,-0.4l0.1,0.4c-0.1,0 -1,0.4 -1.9,0.5c-0.4,0.1 -0.7,0.1 -1,0.1c-0.3,0 -0.5,-0.1 -0.5,-0.2z" data-paper-data="{&quot;index&quot;:null}" fill="#000000" stroke="none" stroke-width="1" stroke-linecap="butt"/><path d="M245.67557,189.75l-2,-4.4c-0.3,-0.7 0,-1.6 0.7,-1.9c0.7,-0.3 1.6,0 1.9,0.7l2,4.4c0.3,0.7 0,1.6 -0.7,1.9c-0.2,0.1 -0.4,0.1 -0.6,0.1c-0.5,0 -1.1,-0.3 -1.3,-0.8z" data-paper-data="{&quot;index&quot;:null}" fill="#ffa41f" stroke="none" stroke-width="1" stroke-linecap="butt"/><path d="M241.17557,190.75c0.6,0 1.2,-0.1 1.7,-0.2c-0.3,0.4 -0.6,0.7 -1,0.9c-0.2,0.1 -0.3,0.1 -0.5,0.2c-0.3,0 -0.6,0 -0.8,-0.1c-0.6,-0.2 -1.2,-0.7 -1.7,-1.2c0.6,0.3 1.5,0.4 2.3,0.4z" data-paper-data="{&quot;index&quot;:null}" fill="#e2e2e2" stroke="none" stroke-width="1" stroke-linecap="butt"/></g></g></svg>