<svg version="1.1" xmlns="http://www.w3.org/2000/svg" xmlns:xlink="http://www.w3.org/1999/xlink" width="30.41584" height="32.7" viewBox="0,0,30.41584,32.7"><g transform="translate(-223.88566,-162.8)"><g data-paper-data="{&quot;isPaintingLayer&quot;:true}" fill-rule="nonzero" stroke-linejoin="miter" stroke-miterlimit="10" stroke-dasharray="" stroke-dashoffset="0" style="mix-blend-mode: normal"><path d="M252.98566,186.3c0,0 -2.6,6 -8.2,2.9" data-paper-data="{&quot;index&quot;:null}" fill="none" stroke="#e0901b" stroke-width="2.5" stroke-linecap="round"/><path d="M251.58566,188.4c-0.2,-0.2 -0.4,-0.4 -0.5,-0.8c-0.1,-0.4 0,-0.7 0.2,-1c0.2,-0.2 0.3,-0.5 0.4,-0.6c0.1,-0.1 0.1,-0.2 0.1,-0.2v0c0.2,-0.5 0.7,-0.8 1.2,-0.8c0.2,0 0.3,0 0.5,0.1c0.7,0.3 1,1 0.7,1.7v0v0c0,0.2 -0.3,0.7 -0.7,1.3c-0.3,0.4 -0.7,0.6 -1.1,0.6v0c-0.3,0 -0.5,-0.1 -0.8,-0.3z" data-paper-data="{&quot;index&quot;:null}" fill="#ededed" stroke="none" stroke-width="1" stroke-linecap="butt"/><path d="M243.88566,194.2c-0.9,0 -1.7,-0.8 -1.7,-1.8c0,-0.7 0.4,-1.3 1,-1.6l-0.5,-1c-0.4,-0.9 -0.1,-2 0.8,-2.4c0.9,-0.4 2,-0.1 2.4,0.8l1.7,3.3c0.2,0.5 0.2,1.2 -0.1,1.7c-0.3,0.5 -0.9,0.8 -1.5,0.8z" data-paper-data="{&quot;index&quot;:null}" fill="#ffa41f" stroke="none" stroke-width="1" stroke-linecap="butt"/><path d="M235.08566,195.5c-0.9,0 -1.7,-0.8 -1.7,-1.8c0.1,-0.9 0.8,-1.7 1.8,-1.7v0h1.4l0.6,-2.1c0.3,-0.9 1.3,-1.5 2.2,-1.2c0.9,0.3 1.5,1.3 1.2,2.2l-1,3.3c-0.2,0.8 -0.9,1.3 -1.7,1.3z" data-paper-data="{&quot;index&quot;:null}" fill="#ffa41f" stroke="none" stroke-width="1" stroke-linecap="butt"/><path d="M233.48566,190.7c-0.7,-0.4 -0.9,-1.2 -0.5,-1.9l2.5,-4.2c0.4,-0.7 1.2,-0.9 1.9,-0.5c0.7,0.4 0.9,1.2 0.5,1.9l-2.5,4.2c-0.3,0.5 -0.7,0.7 -1.2,0.7c-0.3,0 -0.5,0 -0.7,-0.2z" data-paper-data="{&quot;index&quot;:null}" fill="#faa51d" stroke="none" stroke-width="1" stroke-linecap="butt"/><path d="M245.53966,182.2c1.14,1.05 1.846,2.5 1.846,4.1c0,1.6 -0.706,3.05 -1.846,4.1c-1.141,1.05 -2.716,1.7 -4.454,1.7c-1.738,0 -3.313,-0.65 -4.454,-1.7c-1.14,-1.05 -1.846,-2.5 -1.846,-4.1c0,-1.6 0.706,-3.05 1.846,-4.1c1.141,-1.05 2.716,-1.7 4.454,-1.7c1.738,0 3.313,0.65 4.454,1.7z" data-paper-data="{&quot;index&quot;:null}" fill="#e8951c" stroke="none" stroke-width="1" stroke-linecap="butt"/><path d="M240.98566,191.2c3.1,0 5.6,-1.8 6.4,-4.3c-0.3,2.9 -3,5.2 -6.2,5.2c-2.6,0 -4.9,-1.5 -5.8,-3.6c1.1,1.6 3.2,2.7 5.6,2.7z" data-paper-data="{&quot;index&quot;:null}" fill="#d17d20" stroke="none" stroke-width="1" stroke-linecap="butt"/><path d="M238.78566,186.6c1.5,-0.8 3.3,-0.3 4.1,1.2c0.8,1.5 0.2,3.3 -1.3,4.1c-1.5,0.8 -3.1,-0.8 -3.9,-2.3c-0.7,-1.5 -0.4,-2.2 1.1,-3z" data-paper-data="{&quot;index&quot;:null}" fill="#f4f4f4" stroke="none" stroke-width="1" stroke-linecap="butt"/><path d="M237.78566,185.6c-1,0 -1.9,-0.1 -2.9,-0.2c0.5,-2.8 3.1,-4.9 6.2,-4.9c2.4,0 4.5,1.2 5.5,3c-2.2,1.3 -5.3,2.1 -8.8,2.1z" data-paper-data="{&quot;index&quot;:null}" fill="#d17d20" stroke="none" stroke-width="1" stroke-linecap="butt"/><path d="M241.98566,166.6l5.5,-3.1v7.7" data-paper-data="{&quot;index&quot;:null}" fill="#faa51d" stroke="none" stroke-width="1" stroke-linecap="butt"/><path d="M233.48566,168.9l1.5,-6.1l5.6,5.3" data-paper-data="{&quot;index&quot;:null}" fill="#faa51d" stroke="none" stroke-width="1" stroke-linecap="butt"/><path d="M238.48566,165.9c5.8,0 10.5,4.7 10.5,9.8c0,5 -4.7,9.1 -10.5,9.2c-5.9,0 -10.2,-4.2 -9.5,-9.2c0.8,-6.2 3.7,-9.8 9.5,-9.8z" data-paper-data="{&quot;index&quot;:null}" fill="#faa51d" stroke="none" stroke-width="1" stroke-linecap="butt"/><path d="M241.58566,174.1c4.4,1.4 4.5,3.5 4.1,5.9c-0.5,3.1 -5.4,4.9 -10.9,4c-5.5,-0.8 -8.5,-4 -8,-7.1c0.4,-2.5 1.5,-4.3 6.4,-4.3c0.6,0 0.6,2.5 2.4,2.7c1.9,0.3 5.4,-1.3 6,-1.2z" data-paper-data="{&quot;index&quot;:null}" fill="#ffffff" stroke="#faa51d" stroke-width="0.3" stroke-linecap="butt"/><path d="M237.58566,172.5c0.4,-2.2 2.1,-3.8 3.7,-3.5c1.7,0.3 2.7,2.4 2.3,4.6c-0.4,2.2 -2,3.8 -3.7,3.5c-1.7,-0.3 -2.7,-2.4 -2.3,-4.6" data-paper-data="{&quot;index&quot;:null}" fill="#ffffff" stroke="none" stroke-width="1" stroke-linecap="butt"/><path d="M239.88566,177.3c-0.8,-0.1 -1.5,-0.7 -2,-1.6c-0.5,-0.9 -0.6,-2 -0.4,-3.1c0.4,-2.1 1.9,-3.7 3.5,-3.7c0.1,0 0.3,0 0.4,0c0.8,0.1 1.5,0.7 2,1.6c0.5,0.9 0.6,2 0.4,3.1c-0.4,2.1 -1.9,3.7 -3.5,3.7c-0.1,0 -0.3,0 -0.4,0zM237.68566,172.6c-0.1,1 0,2.1 0.4,2.9c0.4,0.8 1,1.4 1.8,1.5c0.2,0 0.3,0 0.4,0c1.5,0 2.9,-1.5 3.2,-3.5c0.1,-1 0,-2.1 -0.4,-2.9c-0.4,-0.8 -1,-1.4 -1.8,-1.5c-0.2,0 -0.3,0 -0.4,0c-1.4,0 -2.8,1.5 -3.2,3.5z" data-paper-data="{&quot;index&quot;:null}" fill="#faa51d" stroke="none" stroke-width="1" stroke-linecap="butt"/><path d="M238.38566,174.8c-0.2,-0.6 0,-1.3 0.4,-1.5c0.6,-0.3 1.2,0 1.5,0.6c0.3,0.6 0,1.3 -0.5,1.5c-0.5,0.3 -1.1,0 -1.4,-0.6" data-paper-data="{&quot;index&quot;:null}" fill="#000000" stroke="none" stroke-width="1" stroke-linecap="butt"/><path d="M231.18566,171.5c0.4,-2.2 2,-3.8 3.6,-3.5c1.6,0.3 2.6,2.3 2.2,4.5c-0.4,2.2 -2,3.8 -3.6,3.5c-1.6,-0.3 -2.6,-2.3 -2.2,-4.5" data-paper-data="{&quot;index&quot;:null}" fill="#ffffff" stroke="none" stroke-width="1" stroke-linecap="butt"/><path d="M233.48566,176.1c-0.9,-0.1 -1.6,-0.7 -2,-1.6c-0.5,-0.9 -0.6,-2 -0.4,-3.1c0.4,-2 1.8,-3.6 3.4,-3.6c0.1,0 0.3,0 0.4,0c0.9,0.1 1.6,0.7 2,1.6c0.5,0.9 0.6,2 0.4,3.1c-0.4,2 -1.8,3.6 -3.4,3.6c-0.2,0 -0.3,0 -0.4,0zM231.38566,171.5c-0.1,1.1 0,2.1 0.4,2.9c0.4,0.8 1.1,1.3 1.8,1.4c0.2,0 0.3,0 0.4,0c1.4,0 2.8,-1.5 3.1,-3.4c0.1,-1.1 0,-2.1 -0.4,-2.9c-0.4,-0.8 -1.1,-1.3 -1.8,-1.4c-0.2,0 -0.3,0 -0.4,0c-1.5,0 -2.8,1.5 -3.1,3.4z" data-paper-data="{&quot;index&quot;:null}" fill="#faa51d" stroke="none" stroke-width="1" stroke-linecap="butt"/><path d="M231.98566,173.6c-0.2,-0.5 0,-1.2 0.5,-1.5c0.5,-0.3 1.1,0 1.4,0.6c0.3,0.6 0,1.3 -0.5,1.5c-0.5,0.3 -1.2,0 -1.4,-0.6" data-paper-data="{&quot;index&quot;:null}" fill="#000000" stroke="none" stroke-width="1" stroke-linecap="butt"/><path d="M235.48566,175.4c0.9,0 2.3,-0.3 2.2,0.5c0,0.8 -2.4,2 -3,1.9c-0.7,0 -1.6,-1.7 -1.5,-2.1c0.1,-0.4 1.4,-0.3 2.3,-0.3" data-paper-data="{&quot;index&quot;:null}" fill="#5e4a42" stroke="none" stroke-width="1" stroke-linecap="butt"/><path d="M230.88566,179.2l-0.2,-0.3h0.5c0.6,0 2.7,0 3.9,-0.1c1.4,-0.1 5.4,-0.8 5.4,-0.8h0.2v0.2c0.2,1.4 0.1,2.4 -0.5,3.2c-0.6,0.9 -1.6,1.4 -3.1,1.6c-0.3,0 -0.5,0 -0.7,0c-3.3,0 -5.4,-3.6 -5.5,-3.8zM235.08566,179.2c-1.1,0.1 -2.9,0.1 -3.7,0.1c0.6,0.9 2.5,3.3 5,3.3c0.2,0 0.4,0 0.6,0c1.4,-0.2 2.4,-0.7 2.9,-1.4c0.5,-0.7 0.7,-1.5 0.5,-2.7c-0.8,0.1 -4,0.6 -5.3,0.7z" data-paper-data="{&quot;index&quot;:null}" fill="#faa51d" stroke="none" stroke-width="1" stroke-linecap="butt"/><path d="M247.58566,177.2c0,0 0.9,-0.4 2.2,-0.8c1.4,-0.4 2.2,-0.4 2.2,-0.4v0.4c0,0 -0.8,0 -2.2,0.4c-1.2,0.3 -2.1,0.8 -2.1,0.8z" data-paper-data="{&quot;index&quot;:null}" fill="#000000" stroke="none" stroke-width="1" stroke-linecap="butt"/><path d="M249.28566,179.4c-0.6,-0.2 -1.8,-0.5 -1.8,-0.5l0.1,-0.4c0,0 1.1,0.4 1.7,0.5c0.6,0.1 1.9,0.2 1.9,0.2v0.4c0,0 -1,-0.1 -1.7,-0.2c-0.1,0 -0.2,0 -0.2,0z" data-paper-data="{&quot;index&quot;:null}" fill="#000000" stroke="none" stroke-width="1" stroke-linecap="butt"/><path d="M225.48566,175.4c-1,-0.3 -1.6,-0.9 -1.6,-0.9l0.3,-0.3c0,0 0.6,0.5 1.4,0.8c1.4,0.5 3.5,0.7 2.2,0.5l-0.1,0.4c-0.1,0 -1.5,-0.3 -2.2,-0.5z" data-paper-data="{&quot;index&quot;:null}" fill="#000000" stroke="none" stroke-width="1" stroke-linecap="butt"/><path d="M224.18566,178.2v-0.4c0,0 0.6,0.1 1.5,0c0.9,0 1.8,-0.4 1.8,-0.4l0.1,0.4c-0.1,0 -1,0.4 -1.9,0.5c-0.4,0.1 -0.7,0.1 -1,0.1c-0.3,0 -0.5,-0.1 -0.5,-0.2z" data-paper-data="{&quot;index&quot;:null}" fill="#000000" stroke="none" stroke-width="1" stroke-linecap="butt"/><path d="M247.38566,189.8l-2.7,-4.1c-0.4,-0.6 -0.2,-1.5 0.4,-1.9c0.6,-0.4 1.5,-0.2 1.9,0.4l2.8,4.1c0.4,0.6 0.2,1.5 -0.4,1.9c-0.3,0.1 -0.5,0.2 -0.8,0.2c-0.5,0 -0.9,-0.2 -1.2,-0.6z" data-paper-data="{&quot;index&quot;:null}" fill="#ffa41f" stroke="none" stroke-width="1" stroke-linecap="butt"/><path d="M240.98566,191.2c0.6,0 1.2,-0.1 1.7,-0.2c-0.3,0.4 -0.6,0.7 -1,0.9c-0.2,0.1 -0.3,0.1 -0.5,0.2c-0.3,0 -0.6,0 -0.8,-0.1c-0.6,-0.2 -1.2,-0.7 -1.7,-1.2c0.6,0.3 1.5,0.4 2.3,0.4z" data-paper-data="{&quot;index&quot;:null}" fill="#e2e2e2" stroke="none" stroke-width="1" stroke-linecap="butt"/></g></g></svg>