<svg version="1.1" xmlns="http://www.w3.org/2000/svg" xmlns:xlink="http://www.w3.org/1999/xlink" width="28.83923" height="33.1" viewBox="0,0,28.83923,33.1"><g transform="translate(-227.20057,-162.35)"><g data-paper-data="{&quot;isPaintingLayer&quot;:true}" fill-rule="nonzero" stroke-linejoin="miter" stroke-miterlimit="10" stroke-dasharray="" stroke-dashoffset="0" style="mix-blend-mode: normal"><path d="M235.5398,189.15c-5.6,3.1 -7,-4 -7,-4" fill="none" stroke="#e0901b" stroke-width="2.5" stroke-linecap="round"/><path d="M228.8398,187.65v0c-0.5,0 -1,-0.3 -1.2,-0.9c-0.3,-0.7 -0.4,-1.2 -0.4,-1.3c-0.1,-0.3 0,-0.7 0.2,-1c0.2,-0.3 0.5,-0.5 0.8,-0.6c0.1,0 0.2,0 0.3,0c0.6,0 1.2,0.4 1.3,1v0.1c0,0 0,0.1 0,0.2c0,0.2 0.1,0.4 0.2,0.7c0.1,0.3 0.1,0.7 0,1c-0.1,0.3 -0.4,0.6 -0.7,0.7c-0.2,0.1 -0.3,0.1 -0.5,0.1z" fill="#ededed" stroke="none" stroke-width="1" stroke-linecap="butt"/><path d="M234.9398,195.45c-0.5,0 -1.1,-0.3 -1.4,-0.7c-0.3,-0.4 -0.4,-1 -0.3,-1.5l1.1,-3.7c0.3,-0.9 1.2,-1.5 2.2,-1.2c0.9,0.3 1.5,1.2 1.2,2.2l-0.5,1.4c0.8,0.1 1.4,0.9 1.4,1.7c0,1 -0.8,1.8 -1.7,1.8z" fill="#ffa41f" stroke="none" stroke-width="1" stroke-linecap="butt"/><path d="M240.5398,193.95c-0.9,0 -1.6,-0.7 -1.7,-1.6l-0.4,-3.7c-0.1,-1 0.6,-1.8 1.6,-1.9c1,-0.1 1.8,0.6 1.9,1.6l0.2,2.2h1.1v0c1,0 1.7,0.8 1.8,1.7c0,1 -0.8,1.8 -1.7,1.8z" fill="#ffa41f" stroke="none" stroke-width="1" stroke-linecap="butt"/><path d="M244.8398,190.65c-0.6,0 -1.1,-0.4 -1.3,-0.9l-1.6,-4.4c-0.3,-0.7 0.1,-1.5 0.8,-1.8c0.7,-0.3 1.5,0.1 1.8,0.8l1.6,4.4c0.3,0.7 -0.1,1.5 -0.8,1.8c-0.1,0.1 -0.3,0.1 -0.5,0.1z" fill="#faa51d" stroke="none" stroke-width="1" stroke-linecap="butt"/><path d="M238.8398,180.05c1.738,0 3.313,0.65 4.454,1.7c1.14,1.05 1.846,2.5 1.846,4.1c0,1.6 -0.706,3.05 -1.846,4.1c-1.141,1.05 -2.716,1.7 -4.454,1.7c-1.738,0 -3.313,-0.65 -4.454,-1.7c-1.14,-1.05 -1.846,-2.5 -1.846,-4.1c0,-1.6 0.706,-3.05 1.846,-4.1c1.141,-1.05 2.716,-1.7 4.454,-1.7z" fill="#e8951c" stroke="none" stroke-width="1" stroke-linecap="butt"/><path d="M244.5398,188.05c-0.9,2.1 -3.2,3.6 -5.8,3.6c-3.2,0 -5.9,-2.3 -6.2,-5.2c0.8,2.5 3.3,4.3 6.4,4.3c2.4,0 4.5,-1.1 5.6,-2.7z" fill="#d17d20" stroke="none" stroke-width="1" stroke-linecap="butt"/><path d="M242.2398,189.15c-0.8,1.5 -2.4,3.1 -3.9,2.3c-1.5,-0.8 -2.1,-2.6 -1.3,-4.1c0.8,-1.5 2.6,-2 4.1,-1.2c1.5,0.8 1.8,1.5 1.1,3z" fill="#f4f4f4" stroke="none" stroke-width="1" stroke-linecap="butt"/><path d="M233.3398,183.05c1,-1.8 3.1,-3 5.5,-3c3.1,0 5.7,2.1 6.2,4.9c-1,0.1 -1.9,0.2 -2.9,0.2c-3.5,0 -6.6,-0.8 -8.8,-2.1z" fill="#d17d20" stroke="none" stroke-width="1" stroke-linecap="butt"/><path d="M232.4398,170.75v-7.7l5.5,3.1" fill="#faa51d" stroke="none" stroke-width="1" stroke-linecap="butt"/><path d="M239.3398,167.65l5.6,-5.3l1.5,6.1" fill="#faa51d" stroke="none" stroke-width="1" stroke-linecap="butt"/><path d="M250.9398,175.25c0.7,5 -3.6,9.2 -9.4,9.2c-5.8,0 -10.6,-4.1 -10.6,-9.2c0,-5.1 4.7,-9.8 10.6,-9.8c5.7,0 8.6,3.6 9.4,9.8z" fill="#faa51d" stroke="none" stroke-width="1" stroke-linecap="butt"/><path d="M244.3398,174.85c1.8,-0.2 1.8,-2.7 2.4,-2.7c4.9,0 6,1.8 6.4,4.3c0.5,3.1 -2.5,6.3 -8,7.1c-5.5,0.9 -10.4,-0.9 -10.9,-4c-0.4,-2.4 -0.3,-4.5 4.1,-5.9c0.6,-0.1 4.1,1.5 6,1.2z" fill="#ffffff" stroke="none" stroke-width="1" stroke-linecap="butt"/><path d="M242.3398,184.05c-2.1,0 -4.1,-0.4 -5.6,-1.2c-1.5,-0.8 -2.5,-1.9 -2.7,-3.2c-0.4,-2.4 -0.3,-4.6 4.2,-6c0,0 0.1,0 0.2,0c0.3,0 1,0.2 1.8,0.4c1.1,0.3 2.6,0.7 3.6,0.7c0.2,0 0.3,0 0.4,0c1.1,-0.1 1.5,-1.1 1.8,-1.8c0.2,-0.5 0.4,-0.8 0.7,-0.8c4.9,0 6.2,1.8 6.6,4.4c0.3,1.6 -0.4,3.2 -1.8,4.5c-1.5,1.4 -3.7,2.4 -6.3,2.8c-1,0.1 -2,0.2 -2.9,0.2zM238.4398,173.95v0c-4.4,1.4 -4.5,3.3 -4.1,5.7c0.4,2.4 3.7,4.1 8,4.1c0.9,0 1.8,-0.1 2.7,-0.2c2.6,-0.4 4.7,-1.3 6.2,-2.7c1.3,-1.3 1.9,-2.8 1.7,-4.3c-0.4,-2.5 -1.6,-4.1 -6.3,-4.2c-0.1,0 -0.3,0.4 -0.4,0.7c-0.3,0.7 -0.8,1.8 -2,2c-0.1,0 -0.3,0 -0.5,0c-1.1,0 -2.5,-0.4 -3.7,-0.8c-0.6,-0.2 -1.3,-0.3 -1.6,-0.3z" fill="#faa51d" stroke="none" stroke-width="1" stroke-linecap="butt"/><path d="M242.3398,172.05c0.4,2.2 -0.6,4.3 -2.3,4.6c-1.7,0.3 -3.3,-1.3 -3.7,-3.5c-0.4,-2.2 0.6,-4.3 2.3,-4.6c1.6,-0.3 3.3,1.3 3.7,3.5" fill="#ffffff" stroke="none" stroke-width="1" stroke-linecap="butt"/><path d="M239.6398,176.85c-1.6,0 -3.1,-1.6 -3.5,-3.7c-0.2,-1.1 0,-2.2 0.4,-3.1c0.5,-0.9 1.2,-1.5 2,-1.6c0.1,0 0.3,0 0.4,0c1.6,0 3.1,1.6 3.5,3.7c0.2,1.1 0.1,2.2 -0.4,3.1c-0.5,0.9 -1.2,1.5 -2,1.6c-0.1,0 -0.3,0 -0.4,0zM239.0398,168.65c-0.1,0 -0.2,0 -0.4,0c-0.8,0.2 -1.4,0.7 -1.8,1.5c-0.4,0.8 -0.6,1.9 -0.4,2.9c0.3,2 1.7,3.5 3.2,3.5c0.1,0 0.2,0 0.4,0c0.8,-0.1 1.4,-0.7 1.8,-1.5c0.4,-0.8 0.5,-1.9 0.4,-2.9c-0.4,-2 -1.8,-3.5 -3.2,-3.5z" fill="#faa51d" stroke="none" stroke-width="1" stroke-linecap="butt"/><path d="M241.5398,174.55c-0.3,0.6 -0.9,0.9 -1.4,0.6c-0.5,-0.2 -0.8,-0.9 -0.5,-1.5c0.3,-0.6 0.9,-0.9 1.5,-0.6c0.4,0.2 0.6,0.9 0.4,1.5" fill="#000000" stroke="none" stroke-width="1" stroke-linecap="butt"/><path d="M248.7398,171.05c0.4,2.2 -0.6,4.2 -2.2,4.5c-1.6,0.3 -3.2,-1.3 -3.6,-3.5c-0.4,-2.2 0.6,-4.2 2.2,-4.5c1.6,-0.3 3.2,1.3 3.6,3.5" fill="#ffffff" stroke="none" stroke-width="1" stroke-linecap="butt"/><path d="M246.0398,175.65c-1.6,0 -3,-1.6 -3.4,-3.6c-0.2,-1.1 -0.1,-2.2 0.4,-3.1c0.4,-0.9 1.1,-1.5 2,-1.6c0.1,0 0.3,0 0.4,0c1.6,0 3,1.6 3.4,3.6c0.2,1.1 0.1,2.2 -0.4,3.1c-0.4,0.9 -1.1,1.5 -2,1.6c-0.1,0 -0.2,0 -0.4,0zM245.4398,167.65c-0.1,0 -0.2,0 -0.4,0c-0.7,0.1 -1.4,0.6 -1.8,1.4c-0.4,0.8 -0.5,1.8 -0.4,2.9c0.3,1.9 1.7,3.4 3.1,3.4c0.1,0 0.2,0 0.4,0c0.7,-0.1 1.4,-0.6 1.8,-1.4c0.4,-0.8 0.5,-1.8 0.4,-2.9c-0.3,-1.9 -1.6,-3.4 -3.1,-3.4z" fill="#faa51d" stroke="none" stroke-width="1" stroke-linecap="butt"/><path d="M247.9398,173.35c-0.3,0.6 -0.9,0.9 -1.4,0.6c-0.5,-0.2 -0.8,-0.9 -0.5,-1.5c0.3,-0.6 0.9,-0.9 1.4,-0.6c0.5,0.3 0.7,1 0.5,1.5" fill="#000000" stroke="none" stroke-width="1" stroke-linecap="butt"/><path d="M244.4398,174.95c0.9,0 2.2,-0.1 2.3,0.3c0.1,0.4 -0.8,2.1 -1.5,2.1c-0.6,0.1 -3,-1.1 -3,-1.9c-0.1,-0.8 1.3,-0.5 2.2,-0.5" fill="#5e4a42" stroke="none" stroke-width="1" stroke-linecap="butt"/><path d="M243.5398,182.55c-0.2,0 -0.4,0 -0.7,-0.1c-1.5,-0.2 -2.5,-0.7 -3.1,-1.6c-0.6,-0.8 -0.7,-1.8 -0.5,-3.2v-0.2h0.2c0,0 4,0.7 5.4,0.8c1.2,0.1 3.3,0.1 3.9,0.1h0.5l-0.2,0.3c-0.1,0.3 -2.2,3.9 -5.5,3.9zM239.5398,178.05c-0.2,1.2 0,2 0.5,2.7c0.5,0.7 1.5,1.2 2.9,1.4c0.2,0 0.4,0 0.6,0c2.5,0 4.4,-2.4 5,-3.3c-0.8,0 -2.6,0 -3.7,-0.1c-1.3,-0.1 -4.5,-0.6 -5.3,-0.7z" fill="#faa51d" stroke="none" stroke-width="1" stroke-linecap="butt"/><path d="M232.2398,177.45c0,0 -0.9,-0.5 -2.1,-0.8c-1.4,-0.4 -2.2,-0.4 -2.2,-0.4v-0.4c0,0 0.8,0 2.2,0.4c1.3,0.4 2.2,0.8 2.2,0.8z" fill="#000000" stroke="none" stroke-width="1" stroke-linecap="butt"/><path d="M230.4398,179.25c-0.7,0.1 -1.7,0.2 -1.7,0.2v-0.4c0,0 1.3,-0.1 1.9,-0.2c0.6,-0.1 1.8,-0.5 1.8,-0.5l0.1,0.4c0,0 -1.2,0.3 -1.8,0.5c-0.1,0 -0.2,0 -0.3,0z" fill="#000000" stroke="none" stroke-width="1" stroke-linecap="butt"/><path d="M252.2398,175.75l-0.1,-0.4c-1.3,0.2 0.8,0 2.2,-0.5c0.8,-0.3 1.4,-0.8 1.4,-0.8l0.3,0.3c0,0 -0.6,0.6 -1.6,0.9c-0.7,0.2 -2.1,0.5 -2.2,0.5z" fill="#000000" stroke="none" stroke-width="1" stroke-linecap="butt"/><path d="M255.2398,178.25c-0.3,0 -0.6,0 -1,-0.1c-0.9,-0.1 -1.8,-0.5 -1.9,-0.5l0.1,-0.4c0,0 0.9,0.4 1.8,0.4c0.9,0.1 1.5,0 1.5,0v0.4c0,0.1 -0.2,0.2 -0.5,0.2z" fill="#000000" stroke="none" stroke-width="1" stroke-linecap="butt"/><path d="M233.1398,190.55c-0.2,0 -0.4,0 -0.6,-0.1c-0.7,-0.3 -1,-1.2 -0.7,-1.9l2,-4.4c0.3,-0.7 1.2,-1 1.9,-0.7c0.7,0.3 1,1.2 0.7,1.9l-2,4.4c-0.2,0.5 -0.8,0.8 -1.3,0.8z" fill="#ffa41f" stroke="none" stroke-width="1" stroke-linecap="butt"/><path d="M241.2398,190.35c-0.5,0.5 -1.1,1 -1.7,1.2c-0.2,0.1 -0.5,0.1 -0.8,0.1c-0.2,-0.1 -0.3,-0.1 -0.5,-0.2c-0.4,-0.2 -0.7,-0.5 -1,-0.9c0.5,0.1 1.1,0.2 1.7,0.2c0.8,0 1.7,-0.1 2.3,-0.4z" fill="#e2e2e2" stroke="none" stroke-width="1" stroke-linecap="butt"/></g></g></svg>