<svg version="1.1" xmlns="http://www.w3.org/2000/svg" xmlns:xlink="http://www.w3.org/1999/xlink" width="30.41584" height="32.7" viewBox="0,0,30.41584,32.7"><g transform="translate(-225.88566,-162.8)"><g data-paper-data="{&quot;isPaintingLayer&quot;:true}" fill-rule="nonzero" stroke-linejoin="miter" stroke-miterlimit="10" stroke-dasharray="" stroke-dashoffset="0" style="mix-blend-mode: normal"><path d="M235.4015,189.2c-5.6,3.1 -8.2,-2.9 -8.2,-2.9" fill="none" stroke="#e0901b" stroke-width="2.5" stroke-linecap="round"/><path d="M227.8015,188.7v0c-0.4,0 -0.8,-0.2 -1.1,-0.6c-0.4,-0.6 -0.7,-1.1 -0.7,-1.3v0v0c-0.3,-0.7 0,-1.4 0.7,-1.7c0.2,-0.1 0.3,-0.1 0.5,-0.1c0.5,0 1,0.3 1.2,0.8v0c0,0 0,0.1 0.1,0.2c0.1,0.1 0.2,0.4 0.4,0.6c0.2,0.3 0.3,0.6 0.2,1c-0.1,0.4 -0.3,0.6 -0.5,0.8c-0.3,0.2 -0.5,0.3 -0.8,0.3z" fill="#ededed" stroke="none" stroke-width="1" stroke-linecap="butt"/><path d="M234.2015,194c-0.6,0 -1.2,-0.3 -1.5,-0.8c-0.3,-0.5 -0.3,-1.2 -0.1,-1.7l1.7,-3.3c0.4,-0.9 1.5,-1.2 2.4,-0.8c0.9,0.4 1.2,1.5 0.8,2.4l-0.5,1c0.6,0.3 1,0.9 1,1.6c0,1 -0.8,1.8 -1.7,1.8z" fill="#ffa41f" stroke="none" stroke-width="1" stroke-linecap="butt"/><path d="M242.3015,195.5c-0.8,0 -1.5,-0.5 -1.7,-1.3l-1,-3.3c-0.3,-0.9 0.3,-1.9 1.2,-2.2c0.9,-0.3 1.9,0.3 2.2,1.2l0.6,2.1h1.4v0c1,0 1.7,0.8 1.8,1.7c0,1 -0.8,1.8 -1.7,1.8z" fill="#ffa41f" stroke="none" stroke-width="1" stroke-linecap="butt"/><path d="M246.0015,190.9c-0.5,0 -0.9,-0.2 -1.2,-0.7l-2.5,-4.2c-0.4,-0.7 -0.2,-1.5 0.5,-1.9c0.7,-0.4 1.5,-0.2 1.9,0.5l2.5,4.2c0.4,0.7 0.2,1.5 -0.5,1.9c-0.2,0.2 -0.4,0.2 -0.7,0.2z" fill="#faa51d" stroke="none" stroke-width="1" stroke-linecap="butt"/><path d="M239.1015,180.5c1.738,0 3.313,0.65 4.454,1.7c1.14,1.05 1.846,2.5 1.846,4.1c0,1.6 -0.706,3.05 -1.846,4.1c-1.141,1.05 -2.716,1.7 -4.454,1.7c-1.738,0 -3.313,-0.65 -4.454,-1.7c-1.14,-1.05 -1.846,-2.5 -1.846,-4.1c0,-1.6 0.706,-3.05 1.846,-4.1c1.141,-1.05 2.716,-1.7 4.454,-1.7z" fill="#e8951c" stroke="none" stroke-width="1" stroke-linecap="butt"/><path d="M244.8015,188.5c-0.9,2.1 -3.2,3.6 -5.8,3.6c-3.2,0 -5.9,-2.3 -6.2,-5.2c0.8,2.5 3.3,4.3 6.4,4.3c2.4,0 4.5,-1.1 5.6,-2.7z" fill="#d17d20" stroke="none" stroke-width="1" stroke-linecap="butt"/><path d="M242.5015,189.6c-0.8,1.5 -2.4,3.1 -3.9,2.3c-1.5,-0.8 -2.1,-2.6 -1.3,-4.1c0.8,-1.5 2.6,-2 4.1,-1.2c1.5,0.8 1.8,1.5 1.1,3z" fill="#f4f4f4" stroke="none" stroke-width="1" stroke-linecap="butt"/><path d="M233.6015,183.5c1,-1.8 3.1,-3 5.5,-3c3.1,0 5.7,2.1 6.2,4.9c-1,0.1 -1.9,0.2 -2.9,0.2c-3.5,0 -6.6,-0.8 -8.8,-2.1z" fill="#d17d20" stroke="none" stroke-width="1" stroke-linecap="butt"/><path d="M232.7015,171.2v-7.7l5.5,3.1" fill="#faa51d" stroke="none" stroke-width="1" stroke-linecap="butt"/><path d="M239.6015,168.1l5.6,-5.3l1.5,6.1" fill="#faa51d" stroke="none" stroke-width="1" stroke-linecap="butt"/><path d="M251.2015,175.7c0.7,5 -3.6,9.2 -9.5,9.2c-5.8,-0.1 -10.5,-4.2 -10.5,-9.2c0,-5.1 4.7,-9.8 10.5,-9.8c5.8,0 8.7,3.6 9.5,9.8z" fill="#faa51d" stroke="none" stroke-width="1" stroke-linecap="butt"/><path d="M244.6015,175.3c1.8,-0.2 1.8,-2.7 2.4,-2.7c4.9,0 6,1.8 6.4,4.3c0.5,3.1 -2.5,6.3 -8,7.1c-5.5,0.9 -10.4,-0.9 -10.9,-4c-0.4,-2.4 -0.3,-4.5 4.1,-5.9c0.6,-0.1 4.1,1.5 6,1.2z" fill="#ffffff" stroke="#faa51d" stroke-width="0.3" stroke-linecap="butt"/><path d="M242.6015,172.5c0.4,2.2 -0.6,4.3 -2.3,4.6c-1.7,0.3 -3.3,-1.3 -3.7,-3.5c-0.4,-2.2 0.6,-4.3 2.3,-4.6c1.6,-0.3 3.3,1.3 3.7,3.5" fill="#ffffff" stroke="none" stroke-width="1" stroke-linecap="butt"/><path d="M239.9015,177.3c-1.6,0 -3.1,-1.6 -3.5,-3.7c-0.2,-1.1 -0.1,-2.2 0.4,-3.1c0.5,-0.9 1.2,-1.5 2,-1.6c0.1,0 0.3,0 0.4,0c1.6,0 3.1,1.6 3.5,3.7c0.2,1.1 0.1,2.2 -0.4,3.1c-0.5,0.9 -1.2,1.5 -2,1.6c-0.1,0 -0.3,0 -0.4,0zM239.3015,169.1c-0.1,0 -0.2,0 -0.4,0c-0.8,0.1 -1.4,0.7 -1.8,1.5c-0.4,0.8 -0.5,1.9 -0.4,2.9c0.3,2 1.7,3.5 3.2,3.5c0.1,0 0.2,0 0.4,0c0.8,-0.1 1.4,-0.7 1.8,-1.5c0.4,-0.8 0.5,-1.9 0.4,-2.9c-0.4,-2 -1.8,-3.5 -3.2,-3.5z" fill="#faa51d" stroke="none" stroke-width="1" stroke-linecap="butt"/><path d="M241.8015,174.8c-0.3,0.6 -0.9,0.9 -1.4,0.6c-0.5,-0.2 -0.8,-0.9 -0.5,-1.5c0.3,-0.6 0.9,-0.9 1.5,-0.6c0.4,0.2 0.6,0.9 0.4,1.5" fill="#000000" stroke="none" stroke-width="1" stroke-linecap="butt"/><path d="M249.0015,171.5c0.4,2.2 -0.6,4.2 -2.2,4.5c-1.6,0.3 -3.2,-1.3 -3.6,-3.5c-0.4,-2.2 0.6,-4.2 2.2,-4.5c1.6,-0.3 3.2,1.3 3.6,3.5" fill="#ffffff" stroke="none" stroke-width="1" stroke-linecap="butt"/><path d="M246.3015,176.1c-1.6,0 -3,-1.6 -3.4,-3.6c-0.2,-1.1 -0.1,-2.2 0.4,-3.1c0.4,-0.9 1.1,-1.5 2,-1.6c0.1,0 0.3,0 0.4,0c1.6,0 3,1.6 3.4,3.6c0.2,1.1 0.1,2.2 -0.4,3.1c-0.4,0.9 -1.1,1.5 -2,1.6c-0.1,0 -0.2,0 -0.4,0zM245.7015,168.1c-0.1,0 -0.2,0 -0.4,0c-0.7,0.1 -1.4,0.6 -1.8,1.4c-0.4,0.8 -0.5,1.8 -0.4,2.9c0.3,1.9 1.7,3.4 3.1,3.4c0.1,0 0.2,0 0.4,0c0.7,-0.1 1.4,-0.6 1.8,-1.4c0.4,-0.8 0.5,-1.8 0.4,-2.9c-0.3,-1.9 -1.6,-3.4 -3.1,-3.4z" fill="#faa51d" stroke="none" stroke-width="1" stroke-linecap="butt"/><path d="M248.2015,173.6c-0.2,0.6 -0.9,0.9 -1.4,0.6c-0.5,-0.2 -0.8,-0.9 -0.5,-1.5c0.3,-0.6 0.9,-0.9 1.4,-0.6c0.5,0.3 0.7,1 0.5,1.5" fill="#000000" stroke="none" stroke-width="1" stroke-linecap="butt"/><path d="M244.7015,175.4c0.9,0 2.2,-0.1 2.3,0.3c0.1,0.4 -0.8,2.1 -1.5,2.1c-0.6,0.1 -3,-1.1 -3,-1.9c-0.1,-0.8 1.3,-0.5 2.2,-0.5" fill="#5e4a42" stroke="none" stroke-width="1" stroke-linecap="butt"/><path d="M243.8015,183c-0.2,0 -0.4,0 -0.7,0c-1.5,-0.2 -2.5,-0.7 -3.1,-1.6c-0.6,-0.8 -0.7,-1.8 -0.5,-3.2v-0.2h0.2c0,0 4,0.7 5.4,0.8c1.2,0.1 3.3,0.1 3.9,0.1h0.5l-0.2,0.3c-0.1,0.2 -2.2,3.8 -5.5,3.8zM239.8015,178.5c-0.2,1.2 0,2 0.5,2.7c0.5,0.7 1.5,1.2 2.9,1.4c0.2,0 0.4,0 0.6,0c2.5,0 4.4,-2.4 5,-3.3c-0.8,0 -2.6,0 -3.7,-0.1c-1.3,-0.1 -4.5,-0.6 -5.3,-0.7z" fill="#faa51d" stroke="none" stroke-width="1" stroke-linecap="butt"/><path d="M232.5015,177.6c0,0 -0.9,-0.5 -2.1,-0.8c-1.4,-0.4 -2.2,-0.4 -2.2,-0.4v-0.4c0,0 0.8,0 2.2,0.4c1.3,0.4 2.2,0.8 2.2,0.8z" fill="#000000" stroke="none" stroke-width="1" stroke-linecap="butt"/><path d="M230.7015,179.4c-0.7,0.1 -1.7,0.2 -1.7,0.2v-0.4c0,0 1.3,-0.1 1.9,-0.2c0.6,-0.1 1.7,-0.5 1.7,-0.5l0.1,0.4c0,0 -1.2,0.3 -1.8,0.5c0,0 -0.1,0 -0.2,0z" fill="#000000" stroke="none" stroke-width="1" stroke-linecap="butt"/><path d="M252.5015,175.9l-0.1,-0.4c-1.3,0.2 0.8,0 2.2,-0.5c0.8,-0.3 1.4,-0.8 1.4,-0.8l0.3,0.3c0,0 -0.6,0.6 -1.6,0.9c-0.7,0.2 -2.1,0.5 -2.2,0.5z" fill="#000000" stroke="none" stroke-width="1" stroke-linecap="butt"/><path d="M255.5015,178.4c-0.3,0 -0.6,0 -1,-0.1c-0.9,-0.1 -1.8,-0.5 -1.9,-0.5l0.1,-0.4c0,0 0.9,0.4 1.8,0.4c0.9,0.1 1.5,0 1.5,0v0.4c0,0.1 -0.2,0.2 -0.5,0.2z" fill="#000000" stroke="none" stroke-width="1" stroke-linecap="butt"/><path d="M231.6015,190.4c-0.3,0 -0.5,-0.1 -0.8,-0.2c-0.6,-0.4 -0.8,-1.3 -0.4,-1.9l2.8,-4.1c0.4,-0.6 1.3,-0.8 1.9,-0.4c0.6,0.4 0.8,1.3 0.4,1.9l-2.7,4.1c-0.3,0.4 -0.7,0.6 -1.2,0.6z" fill="#ffa41f" stroke="none" stroke-width="1" stroke-linecap="butt"/><path d="M241.5015,190.8c-0.5,0.5 -1.1,1 -1.7,1.2c-0.2,0.1 -0.5,0.1 -0.8,0.1c-0.2,-0.1 -0.3,-0.1 -0.5,-0.2c-0.4,-0.2 -0.7,-0.5 -1,-0.9c0.5,0.1 1.1,0.2 1.7,0.2c0.8,0 1.7,-0.1 2.3,-0.4z" fill="#e2e2e2" stroke="none" stroke-width="1" stroke-linecap="butt"/></g></g></svg>