<svg version="1.1" xmlns="http://www.w3.org/2000/svg" xmlns:xlink="http://www.w3.org/1999/xlink" width="28.2848" height="33.2013" viewBox="0,0,28.2848,33.2013"><g transform="translate(-226.07122,-162.50297)"><g data-paper-data="{&quot;isPaintingLayer&quot;:true}" fill-rule="nonzero" stroke="none" stroke-width="0.10597" stroke-linecap="butt" stroke-linejoin="miter" stroke-miterlimit="10" stroke-dasharray="" stroke-dashoffset="0" style="mix-blend-mode: normal"><path d="M250.11342,175.47117l-0.0111,-0.4189c0.2457,-0.0017 1.461,-0.0505 2.4075,-0.2081c0.931,-0.1877 1.6081,-0.631 1.6152,-0.6355l0.231,0.3488c-0.0302,0.0202 -0.7528,0.4929 -1.7635,0.6965c-0.8447,0.1715 -2.4129,0.2152 -2.4791,0.2172z" fill="#010101"/><path d="M252.87952,178.48817c-0.2806,-0.0381 -0.6567,-0.1017 -1.0942,-0.2063c-0.9737,-0.2332 -1.8644,-0.7392 -1.9018,-0.7604l0.2076,-0.3634c0.0089,0.0054 0.8775,0.498 1.7913,0.7169c0.9108,0.2179 1.5561,0.2508 1.5618,0.2512l-0.0201,0.4173c-0.0151,-0.0003 -0.214,-0.0103 -0.5446,-0.0553z" fill="#010101"/><path d="M230.88502,175.15007c-0.0099,-0.0017 -1.0159,-0.1849 -2.3949,-0.13c-1.5291,0.0601 -2.3079,0.2545 -2.3151,0.2561l-0.1038,-0.4055c0.0328,-0.0082 0.8229,-0.2071 2.402,-0.269c1.4291,-0.0563 2.4456,0.1293 2.488,0.1377z" fill="#010101"/><path d="M229.68332,177.54697c-0.637,0.3126 -1.6362,0.6955 -1.6841,0.7139l-0.1501,-0.3905c0.0134,-0.0052 1.3362,-0.513 1.8833,-0.8212c0.5541,-0.312 1.6055,-1.0123 1.6159,-1.019l0.2316,0.3481c-0.0432,0.0293 -1.0747,0.715 -1.6423,1.0353c-0.0734,0.0423 -0.1602,0.0872 -0.2543,0.1334z" fill="#010101"/><path d="M232.25192,188.80487c-0.206,0 -0.4153,-0.043 -0.615,-0.1342c-0.7454,-0.3402 -1.0739,-1.2203 -0.7338,-1.9657l2.1371,-4.6831c0.3402,-0.7453 1.2204,-1.0739 1.9655,-0.7338c0.7454,0.3402 1.0739,1.2203 0.7338,1.9656l-2.1371,4.6832c-0.2489,0.5458 -0.7875,0.868 -1.3505,0.868z" fill="#faa324"/><path d="M234.88232,193.58497c-0.5988,0 -1.1657,-0.2901 -1.5152,-0.7856c-0.3856,-0.5467 -0.4468,-1.2587 -0.1602,-1.8632l1.3795,-2.91c0.4386,-0.9255 1.5445,-1.3202 2.47,-0.8814c0.9255,0.4388 1.3201,1.5446 0.8814,2.4701l-0.4006,0.8451c0.2123,0.2683 0.3529,0.5983 0.3898,0.9638c0.1026,1.019 -0.6402,1.9283 -1.6592,2.0311l-1.1991,0.1209c-0.0623,0.0061 -0.1247,0.0092 -0.1864,0.0092z" fill="#faa324"/><path d="M243.14802,195.70427c-0.8743,0 -1.6309,-0.6113 -1.8135,-1.468l-0.8458,-3.9696c-0.2135,-1.0018 0.4256,-1.9869 1.4272,-2.2004c1.0023,-0.213 1.9869,0.4256 2.2004,1.4273l0.53,2.4879l0.1081,-0.0009c0.0058,-0.0001 0.0117,-0.0001 0.0174,-0.0001c1.0163,0 1.8447,0.819 1.854,1.8374c0.0095,1.0242 -0.8132,1.862 -1.8373,1.8714l-1.623,0.0149c-0.006,0.0001 -0.0118,0.0001 -0.0175,0.0001z" fill="#faa324"/><path d="M247.11532,187.01657c-0.4336,0 -0.8632,-0.1891 -1.1563,-0.5531l-2.0122,-2.4985c-0.514,-0.6381 -0.4131,-1.572 0.2249,-2.086c0.638,-0.514 1.5722,-0.4132 2.086,0.2249l2.0121,2.4985c0.5141,0.6382 0.4132,1.5721 -0.2248,2.086c-0.2742,0.2208 -0.6031,0.3282 -0.9297,0.3282z" fill="#faa51f"/><path d="M239.82302,178.75737c1.8362,0 3.5001,0.6869 4.705,1.7967c1.2048,1.1097 1.9506,2.6423 1.9506,4.3336c0,1.6912 -0.7458,3.2239 -1.9506,4.3336c-1.2049,1.1098 -2.8688,1.7967 -4.705,1.7967c-1.8363,0 -3.5002,-0.6869 -4.7051,-1.7967c-1.2048,-1.1097 -1.9506,-2.6424 -1.9506,-4.3336c0,-1.6913 0.7458,-3.2239 1.9506,-4.3336c1.2049,-1.1098 2.8688,-1.7967 4.7051,-1.7967z" fill="#e89623"/><path d="M245.99662,187.17797c-0.9853,2.2507 -3.3773,3.8399 -6.1736,3.8399c-3.4295,0 -6.2523,-2.3895 -6.6152,-5.4594c0.8197,2.5967 3.554,4.5056 6.803,4.5056c2.5251,0 4.7392,-1.1533 5.9858,-2.8861z" fill="#d07d29"/><path d="M233.96292,181.97947c1.1246,-1.9185 3.327,-3.2221 5.8601,-3.2221c3.3135,0 6.0603,2.2305 6.5699,5.1502c-0.9759,0.1245 -1.9925,0.1905 -3.0375,0.1905c-3.6629,0 -6.9808,-0.8091 -9.3925,-2.1186z" fill="#d07d29"/><path d="M232.65722,171.40157v-8.1563l5.7983,3.285" fill="#faa51f"/><path d="M239.96752,168.10237l5.9305,-5.5994l1.592,6.4711" fill="#faa51f"/><path d="M250.74792,174.55487c0.377,5.3549 -3.8396,8.7665 -10.0139,8.7665c-6.1745,0 -11.1797,-1.8018 -11.1797,-8.7665c0,-4.107 5.5346,-9.932 11.1797,-9.932c5.6589,0 9.7247,5.825 10.0139,9.932z" fill="#faa51f"/><path d="M237.74592,192.54287c-0.0538,0 -0.1087,-0.0026 -0.1651,-0.0078c-1.3126,-0.1224 -1.8714,-1.5527 -2.3477,-3.8209c-0.2936,-1.3982 -0.4614,-2.7609 -0.4683,-2.8182c-0.0887,-0.7261 0.428,-1.3865 1.1539,-1.4753c0.7266,-0.0889 1.3868,0.4278 1.4757,1.1539c0.1389,1.1342 0.3523,2.3078 0.5673,3.1975c0.2927,-0.1394 0.637,-0.1724 0.9702,-0.0664c0.6972,0.2215 1.083,0.9661 0.8615,1.6634c-0.1741,0.5482 -0.6905,2.1738 -2.0475,2.1738z" fill="#df9026"/><path d="M236.26172,188.37827v0c-0.3232,0 -0.638,-0.1155 -0.8859,-0.3253c-0.2512,-0.212 -0.4186,-0.5076 -0.4716,-0.8319c-0.1219,-0.7513 -0.1886,-1.2928 -0.1918,-1.3182v0c-0.0445,-0.3655 0.0551,-0.7269 0.2819,-1.0163c0.2268,-0.2902 0.5531,-0.4737 0.9187,-0.5191c0.0551,-0.0065 0.1124,-0.0096 0.1685,-0.0096c0.6941,0 1.2812,0.5202 1.366,1.2102c0,0.0011 0.0031,0.0265 0.0106,0.0848c0.0074,0.0614 0.019,0.1452 0.0339,0.2511c0.0265,0.1982 0.072,0.5107 0.1314,0.8753c0.0593,0.3635 -0.0265,0.727 -0.2416,1.0258c-0.2152,0.2988 -0.5341,0.496 -0.8976,0.5553c-0.0731,0.0116 -0.1484,0.0179 -0.2225,0.0179z" fill="#ededed"/></g></g></svg>