<svg version="1.1" xmlns="http://www.w3.org/2000/svg" xmlns:xlink="http://www.w3.org/1999/xlink" width="27.762" height="32.5875" viewBox="0,0,27.762,32.5875"><g transform="translate(-226.33519,-162.65405)"><g data-paper-data="{&quot;isPaintingLayer&quot;:true}" fill-rule="nonzero" stroke="none" stroke-width="0.10401" stroke-linecap="butt" stroke-linejoin="miter" stroke-miterlimit="10" stroke-dasharray="" stroke-dashoffset="0" style="mix-blend-mode: normal"><path d="M249.93289,174.96655l-0.0108,-0.4112c0.2411,-0.0016 1.4341,-0.0496 2.363,-0.2042c0.9137,-0.1842 1.5783,-0.6193 1.5854,-0.6238l0.2267,0.3424c-0.0297,0.0198 -0.7388,0.4838 -1.731,0.6836c-0.8291,0.1683 -2.3684,0.2111 -2.4333,0.2132z" fill="#010101"/><path d="M252.64779,177.92765c-0.2754,-0.0374 -0.6446,-0.0998 -1.074,-0.2025c-0.9557,-0.2289 -1.8299,-0.7256 -1.8665,-0.7464l0.2036,-0.3566c0.0087,0.0053 0.8614,0.4887 1.7583,0.7036c0.8939,0.2139 1.5272,0.2462 1.5329,0.2466l-0.0197,0.4096c-0.0149,-0.0003 -0.2101,-0.0101 -0.5346,-0.0543z" fill="#010101"/><path d="M231.05999,175.48335c-0.0098,-0.0017 -0.9971,-0.1815 -2.3506,-0.1276c-1.5009,0.059 -2.2652,0.2498 -2.2723,0.2514l-0.1019,-0.3981c0.0322,-0.008 0.8077,-0.2032 2.3576,-0.264c1.4026,-0.0552 2.4004,0.1269 2.442,0.1352z" fill="#010101"/><path d="M229.88049,177.83595c-0.6253,0.3068 -1.606,0.6826 -1.653,0.7007l-0.1473,-0.3833c0.0131,-0.0051 1.3115,-0.5035 1.8485,-0.8061c0.5439,-0.3062 1.5758,-0.9936 1.586,-1.0001l0.2273,0.3417c-0.0423,0.0288 -1.0548,0.7017 -1.6119,1.0161c-0.072,0.0416 -0.1572,0.0856 -0.2496,0.131z" fill="#010101"/><path d="M232.40169,186.38925c-0.3287,0 -0.6593,-0.1107 -0.9316,-0.3376c-0.6177,-0.515 -0.7011,-1.4331 -0.1862,-2.0509l2.0976,-2.5164c0.5148,-0.6177 1.433,-0.701 2.0508,-0.1862c0.6178,0.515 0.7012,1.4331 0.1862,2.0509l-2.0975,2.5164c-0.2879,0.3455 -0.7022,0.5238 -1.1193,0.5238z" fill="#faa324"/><path d="M234.98369,195.24155c-0.5851,0 -1.135,-0.2812 -1.4772,-0.7567c-0.3463,-0.4812 -0.4367,-1.1009 -0.2421,-1.6609l1.354,-3.8964c0.3298,-0.9495 1.3669,-1.452 2.3167,-1.1218c0.9495,0.3299 1.4517,1.3672 1.1218,2.3167l-0.649,1.8678c0.4074,0.3292 0.6703,0.8308 0.6769,1.3955c0.0115,1.0051 -0.7939,1.8294 -1.7992,1.841l-1.2809,0.0147c-0.007,0.0001 -0.0141,0.0001 -0.021,0.0001z" fill="#faa324"/><path d="M243.09639,193.16145c-0.342,0 -0.6801,-0.0965 -0.9739,-0.2825c-0.4137,-0.262 -0.7042,-0.6795 -0.8063,-1.1584l-0.8302,-3.8964c-0.2095,-0.9832 0.4178,-1.9501 1.4009,-2.1596c0.9839,-0.2093 1.95,0.4178 2.1596,1.4009l0.4535,2.1285c0.8183,0.0076 1.5567,0.5704 1.753,1.4025c0.2309,0.9784 -0.3752,1.9587 -1.3536,2.1895l-1.385,0.3268c-0.1382,0.0325 -0.2783,0.0487 -0.418,0.0487z" fill="#faa324"/><path d="M246.99029,188.37885c-0.5426,0 -1.0635,-0.3047 -1.3139,-0.8266l-1.9749,-4.1166c-0.3479,-0.725 -0.0421,-1.5948 0.6829,-1.9426c0.7253,-0.3481 1.5949,-0.0422 1.9427,0.6829l1.975,4.1166c0.3479,0.725 0.0421,1.5948 -0.683,1.9427c-0.2031,0.0975 -0.4176,0.1436 -0.6288,0.1436z" fill="#faa51f"/><path d="M239.83269,178.60785c1.8022,0 3.4354,0.6742 4.618,1.7635c1.1826,1.0892 1.9146,2.5935 1.9146,4.2535c0,1.66 -0.732,3.1643 -1.9146,4.2534c-1.1826,1.0893 -2.8158,1.7635 -4.618,1.7635c-1.8023,0 -3.4355,-0.6742 -4.618,-1.7635c-1.1826,-1.0891 -1.9146,-2.5934 -1.9146,-4.2534c0,-1.66 0.732,-3.1643 1.9146,-4.2535c1.1825,-1.0893 2.8157,-1.7635 4.618,-1.7635z" fill="#e89623"/><path d="M245.89219,186.87285c-0.9671,2.2091 -3.3148,3.7688 -6.0595,3.7688c-3.3661,0 -6.1367,-2.3453 -6.4929,-5.3583c0.8046,2.5487 3.4884,4.4222 6.6773,4.4222c2.4783,0 4.6514,-1.1321 5.8751,-2.8327z" fill="#d07d29"/><path d="M234.08099,181.77025c1.1038,-1.8828 3.2654,-3.1625 5.7517,-3.1625c3.2522,0 5.9484,2.1894 6.4484,5.0551c-0.9577,0.1221 -1.9557,0.1869 -2.9813,0.1869c-3.5952,0 -6.8517,-0.794 -9.2188,-2.0795z" fill="#d07d29"/><path d="M232.79949,171.38805v-8.0055l5.691,3.2243" fill="#faa51f"/><path d="M239.97449,168.14995l5.8208,-5.4959l1.5628,6.3516" fill="#faa51f"/><path d="M250.55559,174.48305c0.3701,5.256 -3.7685,8.6043 -9.8289,8.6043c-6.0602,0 -10.973,-1.7684 -10.973,-8.6043c0,-4.0311 5.4324,-9.7483 10.973,-9.7483c5.5544,0 9.5451,5.7172 9.8289,9.7483z" fill="#faa51f"/><g><path d="M238.00979,192.13855c-0.1196,0 -0.2225,-0.0154 -0.2986,-0.0321c-1.1704,-0.2558 -1.159,-1.5415 -1.1535,-2.1595c0.0044,-0.4825 0.0412,-1.1362 0.1094,-1.9431c0.1137,-1.3432 0.2745,-2.6513 0.2813,-2.7064c0.0879,-0.7126 0.7372,-1.2175 1.4495,-1.1311c0.7126,0.088 1.2191,0.7369 1.1311,1.4496c-0.1162,0.942 -0.2233,1.9952 -0.2929,2.8818c0.5038,0.3032 0.7534,0.9222 0.5677,1.5072c-0.159,0.5004 -0.2976,0.8707 -0.424,1.1324c-0.4031,0.8348 -0.9769,1.0012 -1.37,1.0012z" fill="#df9026"/><path d="M238.09959,188.05315c-0.0468,0 -0.0957,-0.0031 -0.1436,-0.0083c-0.7416,-0.078 -1.2814,-0.7447 -1.2023,-1.4863c0.0697,-0.6667 0.131,-1.1701 0.1425,-1.2637l0.001,-0.0041c0.0832,-0.6761 0.6594,-1.1857 1.3397,-1.1857c0.0551,0 0.1123,0.0031 0.1674,0.0104c0.7395,0.0905 1.2679,0.7666 1.1764,1.5071v0c0,0 -0.0011,0.0042 -0.0011,0.0114c-0.0052,0.0365 -0.0187,0.153 -0.0395,0.3308c-0.0229,0.1914 -0.0572,0.4993 -0.0978,0.8778c-0.0728,0.6906 -0.65,1.2106 -1.3427,1.2106z" fill="#ededed"/></g></g></g></svg>