<svg version="1.1" xmlns="http://www.w3.org/2000/svg" xmlns:xlink="http://www.w3.org/1999/xlink" width="481" height="371" viewBox="0,0,481,371"><g transform="translate(1.5,7.5)"><g data-paper-data="{&quot;isPaintingLayer&quot;:true}" fill-rule="nonzero" stroke="none" stroke-width="0" stroke-linecap="butt" stroke-linejoin="miter" stroke-miterlimit="10" stroke-dasharray="" stroke-dashoffset="0" style="mix-blend-mode: normal"><path d="M287.5,147.5v57h-99v-57z" data-paper-data="{&quot;index&quot;:null}" fill="#9ef160"/><path d="M287.5,252.5v57h-99v-57z" data-paper-data="{&quot;index&quot;:null}" fill="#9ef160"/><path d="M287.5,43.5v57h-99v-57z" data-paper-data="{&quot;index&quot;:null}" fill="#9ef160"/><path d="M287.5,147.5v57h-99v-57z" data-paper-data="{&quot;index&quot;:null}" fill="#9ef160"/><path d="M287.5,252.5v57h-99v-57z" data-paper-data="{&quot;index&quot;:null}" fill="#57caf2"/><path d="M287.5,43.5v57h-99v-57z" data-paper-data="{&quot;index&quot;:null}" fill="#9ef160"/><path d="M287.5,201.5v57h-99v-57z" data-paper-data="{&quot;index&quot;:null}" fill="#9ef160"/><path d="M287.5,-7.5v57h-99v-57z" data-paper-data="{&quot;index&quot;:null}" fill="#9ef160"/><path d="M287.5,306.5v57h-99v-57z" data-paper-data="{&quot;index&quot;:null}" fill="#9ef160"/><path d="M287.5,97.5v57h-99v-57z" data-paper-data="{&quot;index&quot;:null}" fill="#9ef160"/><path d="M287.5,201.5v57h-99v-57z" data-paper-data="{&quot;index&quot;:null}" fill="#9ef160"/><path d="M287.5,-7.5v57h-99v-57z" data-paper-data="{&quot;index&quot;:null}" fill="#9ef160"/><path d="M287.5,306.5v57h-99v-57z" data-paper-data="{&quot;index&quot;:null}" fill="#57caf2"/><path d="M287.5,97.5v57h-99v-57z" data-paper-data="{&quot;index&quot;:null}" fill="#9ef160"/><path d="M194.5,147.5v57h-99v-57z" data-paper-data="{&quot;index&quot;:null}" fill="#57caf2"/><path d="M194.5,252.5v57h-99v-57z" data-paper-data="{&quot;index&quot;:null}" fill="#57caf2"/><path d="M194.5,43.5v57h-99v-57z" data-paper-data="{&quot;index&quot;:null}" fill="#9ef160"/><path d="M194.5,201.5v57h-99v-57z" data-paper-data="{&quot;index&quot;:null}" fill="#9ef160"/><path d="M194.5,-7.5v57h-99v-57z" data-paper-data="{&quot;index&quot;:null}" fill="#9ef160"/><path d="M194.5,306.5v57h-99v-57z" data-paper-data="{&quot;index&quot;:null}" fill="#9ef160"/><path d="M194.5,97.5v57h-99v-57z" data-paper-data="{&quot;index&quot;:null}" fill="#9ef160"/><path d="M194.5,201.5v57h-99v-57z" data-paper-data="{&quot;index&quot;:null}" fill="#57caf2"/><path d="M194.5,-7.5v57h-99v-57z" data-paper-data="{&quot;index&quot;:null}" fill="#9ef160"/><path d="M194.5,306.5v57h-99v-57z" data-paper-data="{&quot;index&quot;:null}" fill="#57caf2"/><path d="M194.5,97.5v57h-99v-57z" data-paper-data="{&quot;index&quot;:null}" fill="#9ef160"/><path d="M479.5,147.5v57h-99v-57z" data-paper-data="{&quot;index&quot;:null}" fill="#9ef160"/><path d="M479.5,252.5v57h-99v-57z" data-paper-data="{&quot;index&quot;:null}" fill="#9ef160"/><path d="M479.5,43.5v57h-99v-57z" data-paper-data="{&quot;index&quot;:null}" fill="#9ef160"/><path d="M479.5,147.5v57h-99v-57z" data-paper-data="{&quot;index&quot;:null}" fill="#9ef160"/><path d="M479.5,252.5v57h-99v-57z" data-paper-data="{&quot;index&quot;:null}" fill="#9ef160"/><path d="M479.5,43.5v57h-99v-57z" data-paper-data="{&quot;index&quot;:null}" fill="#9ef160"/><path d="M479.5,201.5v57h-99v-57z" data-paper-data="{&quot;index&quot;:null}" fill="#9ef160"/><path d="M479.5,-7.5v57h-99v-57z" data-paper-data="{&quot;index&quot;:null}" fill="#9ef160"/><path d="M479.5,306.5v57h-99v-57z" data-paper-data="{&quot;index&quot;:null}" fill="#9ef160"/><path d="M479.5,97.5v57h-99v-57z" data-paper-data="{&quot;index&quot;:null}" fill="#9ef160"/><path d="M479.5,201.5v57h-99v-57z" data-paper-data="{&quot;index&quot;:null}" fill="#9ef160"/><path d="M479.5,-7.5v57h-99v-57z" data-paper-data="{&quot;index&quot;:null}" fill="#9ef160"/><path d="M479.5,306.5v57h-99v-57z" data-paper-data="{&quot;index&quot;:null}" fill="#57caf2"/><path d="M479.5,97.5v57h-99v-57z" data-paper-data="{&quot;index&quot;:null}" fill="#9ef160"/><path d="M97.5,147.5v57h-99v-57z" data-paper-data="{&quot;index&quot;:null}" fill="#9ef160"/><path d="M97.5,252.5v57h-99v-57z" data-paper-data="{&quot;index&quot;:null}" fill="#9ef160"/><path d="M97.5,43.5v57h-99v-57z" data-paper-data="{&quot;index&quot;:null}" fill="#9ef160"/><path d="M97.5,147.5v57h-99v-57z" data-paper-data="{&quot;index&quot;:null}" fill="#57caf2"/><path d="M97.5,252.5v57h-99v-57z" data-paper-data="{&quot;index&quot;:null}" fill="#57caf2"/><path d="M97.5,43.5v57h-99v-57z" data-paper-data="{&quot;index&quot;:null}" fill="#57caf2"/><path d="M97.5,201.5v57h-99v-57z" data-paper-data="{&quot;index&quot;:null}" fill="#9ef160"/><path d="M97.5,-7.5v57h-99v-57z" data-paper-data="{&quot;index&quot;:null}" fill="#9ef160"/><path d="M97.5,306.5v57h-99v-57z" data-paper-data="{&quot;index&quot;:null}" fill="#9ef160"/><path d="M97.5,97.5v57h-99v-57z" data-paper-data="{&quot;index&quot;:null}" fill="#9ef160"/><path d="M97.5,201.5v57h-99v-57z" data-paper-data="{&quot;index&quot;:null}" fill="#57caf2"/><path d="M97.5,-7.5v57h-99v-57z" data-paper-data="{&quot;index&quot;:null}" fill="#57caf2"/><path d="M97.5,306.5v57h-99v-57z" data-paper-data="{&quot;index&quot;:null}" fill="#57caf2"/><path d="M97.5,97.5v57h-99v-57z" data-paper-data="{&quot;index&quot;:null}" fill="#57caf2"/><path d="M382.5,147.5v57h-99v-57z" data-paper-data="{&quot;index&quot;:null}" fill="#9ef160"/><path d="M382.5,252.5v57h-99v-57z" data-paper-data="{&quot;index&quot;:null}" fill="#9ef160"/><path d="M382.5,43.5v57h-99v-57z" data-paper-data="{&quot;index&quot;:null}" fill="#9ef160"/><path d="M382.5,147.5v57h-99v-57z" data-paper-data="{&quot;index&quot;:null}" fill="#9ef160"/><path d="M382.5,252.5v57h-99v-57z" data-paper-data="{&quot;index&quot;:null}" fill="#57caf2"/><path d="M382.5,43.5v57h-99v-57z" data-paper-data="{&quot;index&quot;:null}" fill="#9ef160"/><path d="M382.5,201.5v57h-99v-57z" data-paper-data="{&quot;index&quot;:null}" fill="#9ef160"/><path d="M382.5,-7.5v57h-99v-57z" data-paper-data="{&quot;index&quot;:null}" fill="#9ef160"/><path d="M382.5,306.5v57h-99v-57z" data-paper-data="{&quot;index&quot;:null}" fill="#9ef160"/><path d="M382.5,97.5v57h-99v-57z" data-paper-data="{&quot;index&quot;:null}" fill="#9ef160"/><path d="M382.5,201.5v57h-99v-57z" data-paper-data="{&quot;index&quot;:null}" fill="#9ef160"/><path d="M382.5,-7.5v57h-99v-57z" data-paper-data="{&quot;index&quot;:null}" fill="#9ef160"/><path d="M382.5,306.5v57h-99v-57z" data-paper-data="{&quot;index&quot;:null}" fill="#57caf2"/><path d="M382.5,97.5v57h-99v-57z" data-paper-data="{&quot;index&quot;:null}" fill="#9ef160"/><path d="M112.62193,99.00001v0v0v0z" fill="#69f200"/></g></g></svg>