<svg version="1.1" xmlns="http://www.w3.org/2000/svg" xmlns:xlink="http://www.w3.org/1999/xlink" width="481" height="371" viewBox="0,0,481,371"><g transform="translate(1.5,7.5)"><g data-paper-data="{&quot;isPaintingLayer&quot;:true}" fill-rule="nonzero" stroke="none" stroke-width="0" stroke-linecap="butt" stroke-linejoin="miter" stroke-miterlimit="10" stroke-dasharray="" stroke-dashoffset="0" style="mix-blend-mode: normal"><path d="M190.5,208.5v-57h99v57z" fill="#9ef160"/><path d="M190.5,103.5v-57h99v57z" fill="#9ef160"/><path d="M190.5,312.5v-57h99v57z" fill="#9ef160"/><path d="M190.5,208.5v-57h99v57z" fill="#9ef160"/><path d="M190.5,103.5v-57h99c0,0 -7,16.43067 -7,26.5c0,8.74262 -12.1697,24.50001 -18.68335,24.50001c-16.26468,0 -73.31665,6 -73.31665,6z" fill="#57caf2"/><path d="M190.5,312.5v-57h99v57z" fill="#9ef160"/><path d="M190.5,154.5v-57h99v57z" fill="#9ef160"/><path d="M190.5,363.5v-57h99v57z" fill="#9ef160"/><path d="M190.5,49.5v-57h99v57z" fill="#9ef160"/><path d="M190.5,258.5v-57h99v57z" fill="#9ef160"/><path d="M190.5,154.5v-57h99v57z" fill="#9ef160"/><path d="M190.5,363.5v-57h99v57z" fill="#9ef160"/><path d="M190.5,49.5v-57h99v57z" fill="#57caf2"/><path d="M190.5,258.5v-57h99v57z" fill="#9ef160"/><path d="M283.5,208.5v-57h99v57z" fill="#9ef160"/><path d="M283.5,103.5v-57h99v57z" fill="#9ef160"/><path d="M283.5,312.5v-57h99v57z" fill="#9ef160"/><path d="M283.5,154.5v-57h99v57z" fill="#9ef160"/><path d="M283.5,363.5v-57h99v57z" fill="#9ef160"/><path d="M283.5,49.5v-57h99v57z" fill="#9ef160"/><path d="M283.5,258.5v-57h99v57z" fill="#9ef160"/><path d="M283.5,154.5v-57h99v57z" fill="#9ef160"/><path d="M283.5,363.5v-57h99v57z" fill="#9ef160"/><path d="M283.5,49.5v-57h99v57z" fill="#57caf2"/><path d="M283.5,258.5v-57h99v57z" fill="#9ef160"/><path d="M-1.5,208.5v-57h99v57z" fill="#9ef160"/><path d="M-1.5,103.5v-57h99v57z" fill="#9ef160"/><path d="M-1.5,312.5v-57h99v57z" fill="#9ef160"/><path d="M-1.5,208.5v-57h99v57z" fill="#57caf2"/><path d="M-1.5,103.5v-57h99v57z" fill="#57caf2"/><path d="M-1.5,312.5v-57h99v57z" fill="#57caf2"/><path d="M-1.5,154.5v-57h99v57z" fill="#9ef160"/><path d="M-1.5,363.5v-57h99v57z" fill="#9ef160"/><path d="M-1.5,49.5v-57h99v57z" fill="#9ef160"/><path d="M-1.5,258.5v-57h99v57z" fill="#9ef160"/><path d="M-1.5,154.5v-57h99v57z" fill="#57caf2"/><path d="M-1.5,363.5v-57h99v57z" fill="#57caf2"/><path d="M-1.5,49.5v-57h99v57z" fill="#57caf2"/><path d="M-1.5,258.5v-57h99v57z" fill="#57caf2"/><path d="M380.5,208.5v-57h99v57z" fill="#9ef160"/><path d="M380.5,103.5v-57h99v57z" fill="#9ef160"/><path d="M380.5,312.5v-57h99v57z" fill="#9ef160"/><path d="M380.5,208.5v-57h99v57z" fill="#9ef160"/><path d="M380.5,103.5v-57h99v57z" fill="#9ef160"/><path d="M380.5,312.5v-57h99v57z" fill="#9ef160"/><path d="M380.5,154.5v-57h99v57z" fill="#9ef160"/><path d="M380.5,363.5v-57h99v57z" fill="#9ef160"/><path d="M380.5,49.5v-57h99v57z" fill="#9ef160"/><path d="M380.5,258.5v-57h99v57z" fill="#9ef160"/><path d="M380.5,154.5v-57h99v57z" fill="#9ef160"/><path d="M380.5,363.5v-57h99v57z" fill="#9ef160"/><path d="M380.5,49.5v-57h99v57z" fill="#57caf2"/><path d="M380.5,258.5v-57h99v57z" fill="#9ef160"/><path d="M95.5,208.5v-57h99v57z" fill="#9ef160"/><path d="M95.5,103.5v-57h99v57z" fill="#9ef160"/><path d="M95.5,312.5v-57h99v57z" fill="#9ef160"/><path d="M95.5,208.5v-57h99v57z" fill="#9ef160"/><path d="M95.5,103.5v-57h99v57z" fill="#57caf2"/><path d="M95.5,312.5v-57h99v57z" fill="#9ef160"/><path d="M95.5,154.5v-57h99v57z" fill="#9ef160"/><path d="M95.5,363.5v-57h99v57z" fill="#9ef160"/><path d="M95.5,49.5v-57h99v57z" fill="#9ef160"/><path d="M95.5,258.5v-57h99v57z" fill="#9ef160"/><path d="M95.5,154.5v-57h99c0,0 0,32.0527 0,42.5c0,6.10229 -7.16969,14.5 -13.68335,14.5c-16.26468,0 -85.31665,0 -85.31665,0z" fill="#57caf2"/><path d="M95.5,363.5v-57h99v57z" fill="#9ef160"/><path d="M95.5,49.5v-57h99v57z" fill="#57caf2"/><path d="M95.5,258.5v-57h99v57z" fill="#9ef160"/></g></g></svg>